<svg width="334" height="400" viewBox="0 0 334 400" fill="none" xmlns="http://www.w3.org/2000/svg">
<path d="M46.45 101.844L46.45 98.6641L55.375 98.6641L55.375 101.844L54.67 101.844L53.995 99.6691L51.835 99.5491L51.835 108.144L53.215 108.474L53.215 109.164L48.61 109.164L48.61 108.474L49.99 108.144L49.99 99.5491L47.815 99.6691L47.155 101.844L46.45 101.844ZM56.0269 109.164L56.0269 108.519L57.3019 108.219L57.3019 98.3791L56.0269 98.3791L56.0269 97.7341L58.4269 97.1641L59.1019 97.1641L59.1019 102.384C59.8619 101.754 60.6669 101.439 61.5169 101.439C62.2969 101.439 62.9119 101.659 63.3619 102.099C63.8119 102.539 64.0369 103.104 64.0369 103.794L64.0369 108.219L65.3119 108.519L65.3119 109.164L61.2769 109.164L61.2769 108.519L62.2519 108.219L62.2519 104.064C62.2519 103.044 61.8169 102.534 60.9469 102.534C60.3569 102.534 59.7419 102.764 59.1019 103.224L59.1019 108.219L60.0769 108.519L60.0769 109.164L56.0269 109.164ZM66.0221 107.304C66.0221 105.574 67.5571 104.709 70.6271 104.709L70.6271 104.184C70.6271 103.314 70.5021 102.764 70.2521 102.534C70.0121 102.294 69.6321 102.174 69.1121 102.174L67.3571 103.674C67.1171 103.524 66.9121 103.314 66.7421 103.044C66.5821 102.764 66.4971 102.469 66.4871 102.159C66.9071 101.929 67.3671 101.754 67.8671 101.634C68.3671 101.504 68.8621 101.439 69.3521 101.439C71.4021 101.439 72.4271 102.299 72.4271 104.019L72.4271 108.189L73.5971 108.189L73.5971 108.684C73.3671 108.904 73.1121 109.074 72.8321 109.194C72.5521 109.324 72.2771 109.389 72.0071 109.389C71.4171 109.389 70.9821 109.134 70.7021 108.624C70.0321 109.134 69.2771 109.389 68.4371 109.389C67.7771 109.389 67.2071 109.214 66.7271 108.864C66.2571 108.514 66.0221 107.994 66.0221 107.304ZM67.9121 107.244C67.9121 107.614 68.0321 107.889 68.2721 108.069C68.5221 108.249 68.8371 108.339 69.2171 108.339C69.7671 108.339 70.2371 108.169 70.6271 107.829L70.6271 105.474C69.7271 105.474 69.0471 105.639 68.5871 105.969C68.1371 106.289 67.9121 106.714 67.9121 107.244ZM74.3134 109.164L74.3134 108.519L75.5884 108.219L75.5884 102.879L74.3134 102.879L74.3134 102.234L76.7134 101.664L77.3884 101.664L77.3884 108.219L78.6634 108.519L78.6634 109.164L74.3134 109.164ZM74.3134 99.8641C74.1234 99.6841 74.0284 99.4491 74.0284 99.1591C74.0284 98.8891 74.1234 98.6591 74.3134 98.4691C74.5034 98.2791 74.7384 98.1841 75.0184 98.1841C75.2884 98.1841 75.5184 98.2791 75.7084 98.4691C75.8984 98.6591 75.9934 98.8891 75.9934 99.1591C75.9934 99.4391 75.8984 99.6741 75.7084 99.8641C75.5184 100.054 75.2884 100.149 75.0184 100.149C74.7284 100.149 74.4934 100.054 74.3134 99.8641ZM77.3134 99.8641C77.1234 99.6841 77.0284 99.4491 77.0284 99.1591C77.0284 98.8891 77.1234 98.6591 77.3134 98.469C77.5034 98.279 77.7384 98.184 78.0184 98.184C78.2884 98.184 78.5184 98.279 78.7084 98.469C78.8984 98.659 78.9934 98.889 78.9934 99.159C78.9934 99.439 78.8984 99.674 78.7084 99.8641C78.5184 100.054 78.2884 100.149 78.0184 100.149C77.7284 100.149 77.4934 100.054 77.3134 99.8641ZM79.2886 109.164L79.2886 108.519L80.5636 108.219L80.5636 98.379L79.2886 98.379L79.2886 97.734L81.6886 97.164L82.3636 97.164L82.3636 108.219L83.6386 108.519L83.6386 109.164L79.2886 109.164ZM84.4791 107.304C84.4791 105.574 86.0141 104.709 89.0841 104.709L89.0841 104.184C89.0841 103.314 88.9591 102.764 88.7091 102.534C88.4691 102.294 88.0891 102.174 87.5691 102.174L85.8141 103.674C85.5741 103.524 85.3691 103.314 85.1991 103.044C85.0391 102.764 84.9541 102.469 84.9441 102.159C85.3641 101.929 85.8241 101.754 86.3241 101.634C86.8241 101.504 87.3191 101.439 87.8091 101.439C89.8591 101.439 90.8841 102.299 90.8841 104.019L90.8841 108.189L92.0541 108.189L92.0541 108.684C91.8241 108.904 91.5691 109.074 91.2891 109.194C91.0091 109.324 90.7341 109.389 90.4641 109.389C89.8741 109.389 89.4391 109.134 89.1591 108.624C88.4891 109.134 87.7341 109.389 86.8941 109.389C86.2341 109.389 85.6641 109.214 85.1841 108.864C84.7141 108.514 84.4791 107.994 84.4791 107.304ZM86.3691 107.244C86.3691 107.614 86.4891 107.889 86.7291 108.069C86.9791 108.249 87.2941 108.339 87.6741 108.339C88.2241 108.339 88.6941 108.169 89.0841 107.829L89.0841 105.474C88.1841 105.474 87.5041 105.639 87.0441 105.969C86.5941 106.289 86.3691 106.714 86.3691 107.244ZM92.7705 109.164L92.7705 108.519L94.0455 108.219L94.0455 102.879L92.7705 102.879L92.7705 102.234L95.1705 101.664L95.8455 101.664L95.8455 102.384C96.6055 101.754 97.4105 101.439 98.2605 101.439C99.0405 101.439 99.6555 101.659 100.105 102.099C100.555 102.539 100.78 103.104 100.78 103.794L100.78 108.219L102.055 108.519L102.055 109.164L98.0205 109.164L98.0205 108.519L98.9955 108.219L98.9955 104.064C98.9955 103.044 98.5605 102.534 97.6905 102.534C97.1005 102.534 96.4855 102.764 95.8455 103.224L95.8455 108.219L96.8205 108.519L96.8205 109.164L92.7705 109.164ZM102.88 105.684C102.88 104.334 103.295 103.289 104.125 102.549C104.955 101.809 105.96 101.439 107.14 101.439C107.56 101.439 107.925 101.484 108.235 101.574L108.235 98.379L106.96 98.379L106.96 97.734L109.36 97.164L110.035 97.164L110.035 108.189L111.205 108.189L111.205 108.684L110.965 108.879C110.865 108.959 110.675 109.064 110.395 109.194C110.125 109.324 109.86 109.389 109.6 109.389C109.49 109.389 109.38 109.374 109.27 109.344C109.17 109.324 109.08 109.294 109 109.254C108.92 109.214 108.845 109.169 108.775 109.119C108.705 109.059 108.645 109.004 108.595 108.954C108.555 108.904 108.51 108.849 108.46 108.789C108.42 108.729 108.39 108.679 108.37 108.639C108.35 108.599 108.325 108.554 108.295 108.504L108.265 108.444C107.665 109.074 106.925 109.389 106.045 109.389C105.175 109.389 104.43 109.074 103.81 108.444C103.19 107.804 102.88 106.884 102.88 105.684ZM104.725 105.624C104.725 106.484 104.915 107.139 105.295 107.589C105.685 108.039 106.145 108.264 106.675 108.264C107.235 108.264 107.755 108.079 108.235 107.709L108.235 102.414C107.925 102.314 107.605 102.264 107.275 102.264C106.515 102.264 105.9 102.549 105.43 103.119C104.96 103.689 104.725 104.524 104.725 105.624Z" fill="#FAF2ED"/>
<path opacity="0.7" d="M37.7314 332.439C38.5414 332.439 39.2564 332.574 39.8764 332.844C40.4964 333.114 41.0214 333.489 41.4514 333.969C41.8814 334.449 42.2064 335.024 42.4264 335.694C42.6464 336.364 42.7564 337.099 42.7564 337.899C42.7564 338.709 42.6464 339.449 42.4264 340.119C42.2164 340.789 41.8964 341.369 41.4664 341.859C41.0464 342.339 40.5214 342.714 39.8914 342.984C39.2714 343.254 38.5514 343.389 37.7314 343.389C36.8614 343.389 36.1064 343.244 35.4664 342.954C34.8364 342.664 34.3164 342.274 33.9064 341.784C33.4964 341.284 33.1914 340.699 32.9914 340.029C32.8014 339.359 32.7064 338.639 32.7064 337.869C32.7064 337.119 32.8064 336.419 33.0064 335.769C33.2064 335.109 33.5114 334.534 33.9214 334.044C34.3314 333.544 34.8514 333.154 35.4814 332.874C36.1214 332.584 36.8714 332.439 37.7314 332.439ZM37.7314 333.324C36.7114 333.324 35.9364 333.754 35.4064 334.614C34.8864 335.464 34.6264 336.564 34.6264 337.914C34.6264 339.344 34.9014 340.469 35.4514 341.289C36.0114 342.099 36.7714 342.504 37.7314 342.504C38.6914 342.504 39.4464 342.099 39.9964 341.289C40.5564 340.469 40.8364 339.344 40.8364 337.914C40.8364 336.564 40.5714 335.464 40.0414 334.614C39.5214 333.754 38.7514 333.324 37.7314 333.324ZM44.1587 339.444C44.1587 338.254 44.5187 337.289 45.2387 336.549C45.9687 335.809 46.8487 335.439 47.8787 335.439C48.7687 335.439 49.5687 335.649 50.2787 336.069C50.2687 336.409 50.1687 336.724 49.9787 337.014C49.7887 337.294 49.5737 337.499 49.3337 337.629L47.8937 336.264L47.8037 336.264C47.2937 336.354 46.8637 336.679 46.5137 337.239C46.1637 337.789 45.9887 338.514 45.9887 339.414C45.9887 340.444 46.2237 341.199 46.6937 341.679C47.1737 342.159 47.8037 342.399 48.5837 342.399C49.1937 342.399 49.7537 342.259 50.2637 341.979L50.5187 342.714C49.6787 343.164 48.8237 343.389 47.9537 343.389C46.8737 343.389 45.9687 343.044 45.2387 342.354C44.5187 341.654 44.1587 340.684 44.1587 339.444ZM51.3654 339.324C51.3654 338.224 51.6804 337.304 52.3104 336.564C52.9404 335.814 53.8104 335.439 54.9204 335.439C55.5004 335.439 56.0054 335.549 56.4354 335.769C56.8754 335.979 57.2204 336.274 57.4704 336.654C57.7304 337.034 57.9204 337.459 58.0404 337.929C58.1604 338.399 58.2204 338.909 58.2204 339.459L53.1504 339.459C53.2204 340.279 53.4954 340.979 53.9754 341.559C54.4554 342.129 55.1104 342.414 55.9404 342.414C56.4704 342.414 57.0454 342.299 57.6654 342.069L57.9204 342.774C56.9904 343.184 56.1054 343.389 55.2654 343.389C54.0554 343.389 53.1004 342.994 52.4004 342.204C51.7104 341.414 51.3654 340.454 51.3654 339.324ZM53.1504 338.724L56.3604 338.484C56.3304 337.884 56.1904 337.364 55.9404 336.924C55.6904 336.484 55.3354 336.264 54.8754 336.264C54.3754 336.264 53.9654 336.499 53.6454 336.969C53.3354 337.439 53.1704 338.024 53.1504 338.724ZM54.6054 334.344L56.1654 331.614C56.7454 331.714 57.2104 331.979 57.5604 332.409L55.2504 334.779L54.6054 334.344ZM59.3023 341.304C59.3023 339.574 60.8373 338.709 63.9073 338.709L63.9073 338.184C63.9073 337.314 63.7823 336.764 63.5323 336.534C63.2923 336.294 62.9123 336.174 62.3923 336.174L60.6373 337.674C60.3973 337.524 60.1923 337.314 60.0223 337.044C59.8623 336.764 59.7773 336.469 59.7673 336.159C60.1873 335.929 60.6473 335.754 61.1473 335.634C61.6473 335.504 62.1423 335.439 62.6323 335.439C64.6823 335.439 65.7073 336.299 65.7073 338.019L65.7073 342.189L66.8773 342.189L66.8773 342.684C66.6473 342.904 66.3923 343.074 66.1123 343.194C65.8323 343.324 65.5573 343.389 65.2873 343.389C64.6973 343.389 64.2623 343.134 63.9823 342.624C63.3123 343.134 62.5573 343.389 61.7173 343.389C61.0573 343.389 60.4873 343.214 60.0073 342.864C59.5373 342.514 59.3023 341.994 59.3023 341.304ZM61.1923 341.244C61.1923 341.614 61.3123 341.889 61.5523 342.069C61.8023 342.249 62.1173 342.339 62.4973 342.339C63.0473 342.339 63.5173 342.169 63.9073 341.829L63.9073 339.474C63.0073 339.474 62.3273 339.639 61.8673 339.969C61.4173 340.289 61.1923 340.714 61.1923 341.244ZM67.5937 343.164L67.5937 342.519L68.8687 342.219L68.8687 336.879L67.5937 336.879L67.5937 336.234L69.9937 335.664L70.6687 335.664L70.6687 336.384C71.4287 335.754 72.2337 335.439 73.0837 335.439C73.8637 335.439 74.4787 335.659 74.9287 336.099C75.3787 336.539 75.6037 337.104 75.6037 337.794L75.6037 342.219L76.8787 342.519L76.8787 343.164L72.8437 343.164L72.8437 342.519L73.8187 342.219L73.8187 338.064C73.8187 337.044 73.3837 336.534 72.5137 336.534C71.9237 336.534 71.3087 336.764 70.6687 337.224L70.6687 342.219L71.6437 342.519L71.6437 343.164L67.5937 343.164ZM30.9901 362.164L30.9901 361.474L32.3851 361.144L32.3851 352.684L30.9901 352.354L30.9901 351.664L35.5951 351.664L35.5951 352.354L34.2151 352.684L34.2151 361.144L35.5951 361.474L35.5951 362.164L30.9901 362.164ZM36.7881 362.164L36.7881 361.519L38.0631 361.219L38.0631 355.879L36.7881 355.879L36.7881 355.234L39.1881 354.664L39.8631 354.664L39.8631 355.384C40.6231 354.754 41.4281 354.439 42.2781 354.439C43.0581 354.439 43.6731 354.659 44.1231 355.099C44.5731 355.539 44.7981 356.104 44.7981 356.794L44.7981 361.219L46.0731 361.519L46.0731 362.164L42.0381 362.164L42.0381 361.519L43.0131 361.219L43.0131 357.064C43.0131 356.044 42.5781 355.534 41.7081 355.534C41.1181 355.534 40.5031 355.764 39.8631 356.224L39.8631 361.219L40.8381 361.519L40.8381 362.164L36.7881 362.164ZM46.8979 358.684C46.8979 357.334 47.3129 356.289 48.1429 355.549C48.9729 354.809 49.9779 354.439 51.1579 354.439C51.5779 354.439 51.9429 354.484 52.2529 354.574L52.2529 351.379L50.9779 351.379L50.9779 350.734L53.3779 350.164L54.0529 350.164L54.0529 361.189L55.2229 361.189L55.2229 361.684L54.9829 361.879C54.8829 361.959 54.6929 362.064 54.4129 362.194C54.1429 362.324 53.8779 362.389 53.6179 362.389C53.5079 362.389 53.3979 362.374 53.2879 362.344C53.1879 362.324 53.0979 362.294 53.0179 362.254C52.9379 362.214 52.8629 362.169 52.7929 362.119C52.7229 362.059 52.6629 362.004 52.6129 361.954C52.5729 361.904 52.5279 361.849 52.4779 361.789C52.4379 361.729 52.4079 361.679 52.3879 361.639C52.3679 361.599 52.3429 361.554 52.3129 361.504L52.2829 361.444C51.6829 362.074 50.9429 362.389 50.0629 362.389C49.1929 362.389 48.4479 362.074 47.8279 361.444C47.2079 360.804 46.8979 359.884 46.8979 358.684ZM48.7429 358.624C48.7429 359.484 48.9329 360.139 49.3129 360.589C49.7029 361.039 50.1629 361.264 50.6929 361.264C51.2529 361.264 51.7729 361.079 52.2529 360.709L52.2529 355.414C51.9429 355.314 51.6229 355.264 51.2929 355.264C50.5329 355.264 49.9179 355.549 49.4479 356.119C48.9779 356.689 48.7429 357.524 48.7429 358.624ZM59.3657 352.384C59.3657 352.694 59.2557 352.959 59.0357 353.179C58.8257 353.389 58.5657 353.494 58.2557 353.494C57.9457 353.494 57.6807 353.389 57.4607 353.179C57.2507 352.959 57.1457 352.694 57.1457 352.384C57.1457 352.074 57.2507 351.814 57.4607 351.604C57.6807 351.384 57.9457 351.274 58.2557 351.274C58.5657 351.274 58.8257 351.379 59.0357 351.589C59.2557 351.799 59.3657 352.064 59.3657 352.384ZM56.0508 362.164L56.0508 361.519L57.3258 361.219L57.3258 355.879L56.0508 355.879L56.0508 355.234L58.4508 354.664L59.1108 354.664L59.1108 361.219L60.3858 361.519L60.3858 362.164L56.0508 362.164ZM61.2531 358.324C61.2531 357.224 61.5681 356.304 62.1981 355.564C62.8281 354.814 63.6981 354.439 64.8081 354.439C65.3881 354.439 65.8931 354.549 66.3231 354.769C66.7631 354.979 67.1081 355.274 67.3581 355.654C67.6181 356.034 67.8081 356.459 67.9281 356.929C68.0481 357.399 68.1081 357.909 68.1081 358.459L63.0381 358.459C63.1081 359.279 63.3831 359.979 63.8631 360.559C64.3431 361.129 64.9981 361.414 65.8281 361.414C66.3581 361.414 66.9331 361.299 67.5531 361.069L67.8081 361.774C66.8781 362.184 65.9931 362.389 65.1531 362.389C63.9431 362.389 62.9881 361.994 62.2881 361.204C61.5981 360.414 61.2531 359.454 61.2531 358.324ZM63.0381 357.724L66.2481 357.484C66.2181 356.884 66.0781 356.364 65.8281 355.924C65.5781 355.484 65.2231 355.264 64.7631 355.264C64.2631 355.264 63.8531 355.499 63.5331 355.969C63.2231 356.439 63.0581 357.024 63.0381 357.724ZM69.205 362.164L69.205 361.519L70.48 361.219L70.48 355.879L69.205 355.879L69.205 355.234L71.605 354.664L72.28 354.664L72.28 355.384C73.04 354.754 73.845 354.439 74.695 354.439C75.475 354.439 76.09 354.659 76.54 355.099C76.99 355.539 77.215 356.104 77.215 356.794L77.215 361.219L78.49 361.519L78.49 362.164L74.455 362.164L74.455 361.519L75.43 361.219L75.43 357.064C75.43 356.044 74.995 355.534 74.125 355.534C73.535 355.534 72.92 355.764 72.28 356.224L72.28 361.219L73.255 361.519L73.255 362.164L69.205 362.164Z" fill="#78CEFF"/>
<path opacity="0.7" d="M269.56 341.439C270.37 341.439 271.085 341.574 271.705 341.844C272.325 342.114 272.85 342.489 273.28 342.969C273.71 343.449 274.035 344.024 274.255 344.694C274.475 345.364 274.585 346.099 274.585 346.899C274.585 347.709 274.475 348.449 274.255 349.119C274.045 349.789 273.725 350.369 273.295 350.859C272.875 351.339 272.35 351.714 271.72 351.984C271.1 352.254 270.38 352.389 269.56 352.389C268.69 352.389 267.935 352.244 267.295 351.954C266.665 351.664 266.145 351.274 265.735 350.784C265.325 350.284 265.02 349.699 264.82 349.029C264.63 348.359 264.535 347.639 264.535 346.869C264.535 346.119 264.635 345.419 264.835 344.769C265.035 344.109 265.34 343.534 265.75 343.044C266.16 342.544 266.68 342.154 267.31 341.874C267.95 341.584 268.7 341.439 269.56 341.439ZM269.56 342.324C268.54 342.324 267.765 342.754 267.235 343.614C266.715 344.464 266.455 345.564 266.455 346.914C266.455 348.344 266.73 349.469 267.28 350.289C267.84 351.099 268.6 351.504 269.56 351.504C270.52 351.504 271.275 351.099 271.825 350.289C272.385 349.469 272.665 348.344 272.665 346.914C272.665 345.564 272.4 344.464 271.87 343.614C271.35 342.754 270.58 342.324 269.56 342.324ZM275.987 348.444C275.987 347.254 276.347 346.289 277.067 345.549C277.797 344.809 278.677 344.439 279.707 344.439C280.597 344.439 281.397 344.649 282.107 345.069C282.097 345.409 281.997 345.724 281.807 346.014C281.617 346.294 281.402 346.499 281.162 346.629L279.722 345.264L279.632 345.264C279.122 345.354 278.692 345.679 278.342 346.239C277.992 346.789 277.817 347.514 277.817 348.414C277.817 349.444 278.052 350.199 278.522 350.679C279.002 351.159 279.632 351.399 280.412 351.399C281.022 351.399 281.582 351.259 282.092 350.979L282.347 351.714C281.507 352.164 280.652 352.389 279.782 352.389C278.702 352.389 277.797 352.044 277.067 351.354C276.347 350.654 275.987 349.684 275.987 348.444ZM283.193 348.324C283.193 347.224 283.508 346.304 284.138 345.564C284.768 344.814 285.638 344.439 286.748 344.439C287.328 344.439 287.833 344.549 288.263 344.769C288.703 344.979 289.048 345.274 289.298 345.654C289.558 346.034 289.748 346.459 289.868 346.929C289.988 347.399 290.048 347.909 290.048 348.459L284.978 348.459C285.048 349.279 285.323 349.979 285.803 350.559C286.283 351.129 286.938 351.414 287.768 351.414C288.298 351.414 288.873 351.299 289.493 351.069L289.748 351.774C288.818 352.184 287.933 352.389 287.093 352.389C285.883 352.389 284.928 351.994 284.228 351.204C283.538 350.414 283.193 349.454 283.193 348.324ZM284.978 347.724L288.188 347.484C288.158 346.884 288.018 346.364 287.768 345.924C287.518 345.484 287.163 345.264 286.703 345.264C286.203 345.264 285.793 345.499 285.473 345.969C285.163 346.439 284.998 347.024 284.978 347.724ZM286.433 343.344L287.993 340.614C288.573 340.714 289.038 340.979 289.388 341.409L287.078 343.779L286.433 343.344ZM291.13 350.304C291.13 348.574 292.665 347.709 295.735 347.709L295.735 347.184C295.735 346.314 295.61 345.764 295.36 345.534C295.12 345.294 294.74 345.174 294.22 345.174L292.465 346.674C292.225 346.524 292.02 346.314 291.85 346.044C291.69 345.764 291.605 345.469 291.595 345.159C292.015 344.929 292.475 344.754 292.975 344.634C293.475 344.504 293.97 344.439 294.46 344.439C296.51 344.439 297.535 345.299 297.535 347.019L297.535 351.189L298.705 351.189L298.705 351.684C298.475 351.904 298.22 352.074 297.94 352.194C297.66 352.324 297.385 352.389 297.115 352.389C296.525 352.389 296.09 352.134 295.81 351.624C295.14 352.134 294.385 352.389 293.545 352.389C292.885 352.389 292.315 352.214 291.835 351.864C291.365 351.514 291.13 350.994 291.13 350.304ZM293.02 350.244C293.02 350.614 293.14 350.889 293.38 351.069C293.63 351.249 293.945 351.339 294.325 351.339C294.875 351.339 295.345 351.169 295.735 350.829L295.735 348.474C294.835 348.474 294.155 348.639 293.695 348.969C293.245 349.289 293.02 349.714 293.02 350.244ZM299.422 352.164L299.422 351.519L300.697 351.219L300.697 345.879L299.422 345.879L299.422 345.234L301.822 344.664L302.497 344.664L302.497 345.384C303.257 344.754 304.062 344.439 304.912 344.439C305.692 344.439 306.307 344.659 306.757 345.099C307.207 345.539 307.432 346.104 307.432 346.794L307.432 351.219L308.707 351.519L308.707 352.164L304.672 352.164L304.672 351.519L305.647 351.219L305.647 347.064C305.647 346.044 305.212 345.534 304.342 345.534C303.752 345.534 303.137 345.764 302.497 346.224L302.497 351.219L303.472 351.519L303.472 352.164L299.422 352.164ZM256.06 366.244C256.21 366.264 256.36 366.279 256.51 366.289C256.66 366.299 256.805 366.304 256.945 366.304C257.285 366.304 257.6 366.254 257.89 366.154C258.19 366.054 258.445 365.904 258.655 365.704C258.875 365.504 259.045 365.259 259.165 364.969C259.285 364.679 259.345 364.339 259.345 363.949C259.345 363.169 259.11 362.584 258.64 362.194C258.18 361.804 257.575 361.609 256.825 361.609L256.06 361.609L256.06 366.244ZM252.835 371.164L252.835 370.474L254.215 370.144L254.215 361.684L252.835 361.354L252.835 360.664L256.825 360.664C259.765 360.664 261.235 361.759 261.235 363.949C261.235 365.059 260.85 365.889 260.08 366.439C259.32 366.979 258.315 367.249 257.065 367.249C256.715 367.249 256.38 367.224 256.06 367.174L256.06 370.144L257.89 370.474L257.89 371.164L252.835 371.164ZM262.119 369.304C262.119 367.574 263.654 366.709 266.724 366.709L266.724 366.184C266.724 365.314 266.599 364.764 266.349 364.534C266.109 364.294 265.729 364.174 265.209 364.174L263.454 365.674C263.214 365.524 263.009 365.314 262.839 365.044C262.679 364.764 262.594 364.469 262.584 364.159C263.004 363.929 263.464 363.754 263.964 363.634C264.464 363.504 264.959 363.439 265.449 363.439C267.499 363.439 268.524 364.299 268.524 366.019L268.524 370.189L269.694 370.189L269.694 370.684C269.464 370.904 269.209 371.074 268.929 371.194C268.649 371.324 268.374 371.389 268.104 371.389C267.514 371.389 267.079 371.134 266.799 370.624C266.129 371.134 265.374 371.389 264.534 371.389C263.874 371.389 263.304 371.214 262.824 370.864C262.354 370.514 262.119 369.994 262.119 369.304ZM264.009 369.244C264.009 369.614 264.129 369.889 264.369 370.069C264.619 370.249 264.934 370.339 265.314 370.339C265.864 370.339 266.334 370.169 266.724 369.829L266.724 367.474C265.824 367.474 265.144 367.639 264.684 367.969C264.234 368.289 264.009 368.714 264.009 369.244ZM270.516 367.444C270.516 366.254 270.876 365.289 271.596 364.549C272.326 363.809 273.206 363.439 274.236 363.439C275.126 363.439 275.926 363.649 276.636 364.069C276.626 364.409 276.526 364.724 276.336 365.014C276.146 365.294 275.931 365.499 275.691 365.629L274.251 364.264L274.161 364.264C273.651 364.354 273.221 364.679 272.871 365.239C272.521 365.789 272.346 366.514 272.346 367.414C272.346 368.444 272.581 369.199 273.051 369.679C273.531 370.159 274.161 370.399 274.941 370.399C275.551 370.399 276.111 370.259 276.621 369.979L276.876 370.714C276.036 371.164 275.181 371.389 274.311 371.389C273.231 371.389 272.326 371.044 271.596 370.354C270.876 369.654 270.516 368.684 270.516 367.444ZM281.079 361.384C281.079 361.694 280.969 361.959 280.749 362.179C280.539 362.389 280.279 362.494 279.969 362.494C279.659 362.494 279.394 362.389 279.174 362.179C278.964 361.959 278.859 361.694 278.859 361.384C278.859 361.074 278.964 360.814 279.174 360.604C279.394 360.384 279.659 360.274 279.969 360.274C280.279 360.274 280.539 360.379 280.749 360.589C280.969 360.799 281.079 361.064 281.079 361.384ZM277.764 371.164L277.764 370.519L279.039 370.219L279.039 364.879L277.764 364.879L277.764 364.234L280.164 363.664L280.824 363.664L280.824 370.219L282.099 370.519L282.099 371.164L277.764 371.164ZM282.89 371.164L282.89 370.519L284.165 370.219L284.165 364.474L282.905 364.474L282.905 363.769L284.165 363.679L284.165 362.554C284.165 360.144 285.135 358.939 287.075 358.939C287.495 358.939 287.925 358.984 288.365 359.074C288.815 359.154 289.155 359.234 289.385 359.314L289.73 359.434C289.72 359.774 289.625 360.074 289.445 360.334C289.275 360.594 289.065 360.789 288.815 360.919L287.345 359.764C286.925 359.764 286.585 359.964 286.325 360.364C286.075 360.754 285.95 361.484 285.95 362.554L285.95 363.559L288.23 363.394L288.23 364.474L285.95 364.474L285.95 370.219L287.945 370.519L287.945 371.164L282.89 371.164ZM292.505 361.384C292.505 361.694 292.395 361.959 292.175 362.179C291.965 362.389 291.705 362.494 291.395 362.494C291.085 362.494 290.82 362.389 290.6 362.179C290.39 361.959 290.285 361.694 290.285 361.384C290.285 361.074 290.39 360.814 290.6 360.604C290.82 360.384 291.085 360.274 291.395 360.274C291.705 360.274 291.965 360.379 292.175 360.589C292.395 360.799 292.505 361.064 292.505 361.384ZM289.19 371.164L289.19 370.519L290.465 370.219L290.465 364.879L289.19 364.879L289.19 364.234L291.59 363.664L292.25 363.664L292.25 370.219L293.525 370.519L293.525 371.164L289.19 371.164ZM294.48 367.684C294.48 366.334 294.905 365.289 295.755 364.549C296.605 363.809 297.625 363.439 298.815 363.439C299.855 363.439 300.79 363.694 301.62 364.204L301.62 374.719L302.895 375.019L302.895 375.664L298.245 375.664L298.245 375.019L299.82 374.719L299.82 370.534C299.28 371.104 298.555 371.389 297.645 371.389C296.785 371.389 296.04 371.074 295.41 370.444C294.79 369.814 294.48 368.894 294.48 367.684ZM296.325 367.624C296.325 368.454 296.52 369.089 296.91 369.529C297.3 369.959 297.785 370.174 298.365 370.174C298.885 370.174 299.37 370.019 299.82 369.709L299.82 364.384C299.5 364.304 299.21 364.264 298.95 364.264C298.15 364.264 297.51 364.554 297.03 365.134C296.56 365.704 296.325 366.534 296.325 367.624ZM302.922 364.309L302.922 363.664L305.982 363.664L305.982 368.839C305.982 369.839 306.412 370.339 307.272 370.339C307.952 370.339 308.592 370.084 309.192 369.574L309.192 364.609L308.217 364.309L308.217 363.664L310.977 363.664L310.977 370.189L312.147 370.189L312.147 370.684C311.907 370.894 311.637 371.064 311.337 371.194C311.047 371.324 310.757 371.389 310.467 371.389C310.237 371.389 310.032 371.344 309.852 371.254C309.682 371.174 309.552 371.069 309.462 370.939C309.372 370.809 309.307 370.704 309.267 370.624C309.227 370.534 309.202 370.459 309.192 370.399C308.402 371.059 307.552 371.389 306.642 371.389C305.842 371.389 305.232 371.174 304.812 370.744C304.402 370.314 304.197 369.744 304.197 369.034L304.197 364.609L302.922 364.309ZM313.069 367.324C313.069 366.224 313.384 365.304 314.014 364.564C314.644 363.814 315.514 363.439 316.624 363.439C317.204 363.439 317.709 363.549 318.139 363.769C318.579 363.979 318.924 364.274 319.174 364.654C319.434 365.034 319.624 365.459 319.744 365.929C319.864 366.399 319.924 366.909 319.924 367.459L314.854 367.459C314.924 368.279 315.199 368.979 315.679 369.559C316.159 370.129 316.814 370.414 317.644 370.414C318.174 370.414 318.749 370.299 319.369 370.069L319.624 370.774C318.694 371.184 317.809 371.389 316.969 371.389C315.759 371.389 314.804 370.994 314.104 370.204C313.414 369.414 313.069 368.454 313.069 367.324ZM314.854 366.724L318.064 366.484C318.034 365.884 317.894 365.364 317.644 364.924C317.394 364.484 317.039 364.264 316.579 364.264C316.079 364.264 315.669 364.499 315.349 364.969C315.039 365.439 314.874 366.024 314.854 366.724Z" fill="#78CEFF"/>
<path d="M209.758 108.521L209.758 107.831L211.138 107.501L211.138 99.0405L209.758 98.7105L209.758 98.0205L214.363 98.0205L214.363 98.7105L212.983 99.0405L212.983 107.516L216.508 107.516L217.318 105.281L218.008 105.281L217.858 108.521L209.758 108.521ZM218.895 106.661C218.895 104.931 220.43 104.066 223.5 104.066L223.5 103.541C223.5 102.671 223.375 102.121 223.125 101.891C222.885 101.651 222.505 101.531 221.985 101.531L220.23 103.031C219.99 102.881 219.785 102.671 219.615 102.401C219.455 102.121 219.37 101.826 219.36 101.516C219.78 101.286 220.24 101.111 220.74 100.991C221.24 100.861 221.735 100.796 222.225 100.796C224.275 100.796 225.3 101.656 225.3 103.376L225.3 107.546L226.47 107.546L226.47 108.041C226.24 108.261 225.985 108.431 225.705 108.551C225.425 108.681 225.15 108.746 224.88 108.746C224.29 108.746 223.855 108.491 223.575 107.981C222.905 108.491 222.15 108.746 221.31 108.746C220.65 108.746 220.08 108.571 219.6 108.221C219.13 107.871 218.895 107.351 218.895 106.661ZM220.785 106.601C220.785 106.971 220.905 107.246 221.145 107.426C221.395 107.606 221.71 107.696 222.09 107.696C222.64 107.696 223.11 107.526 223.5 107.186L223.5 104.831C222.6 104.831 221.92 104.996 221.46 105.326C221.01 105.646 220.785 106.071 220.785 106.601ZM231.101 100.795C232.201 100.795 233.111 101.17 233.831 101.92C234.551 102.66 234.911 103.605 234.911 104.755C234.911 105.915 234.551 106.87 233.831 107.62C233.111 108.37 232.201 108.745 231.101 108.745C230.001 108.746 229.086 108.371 228.356 107.621C227.636 106.871 227.276 105.916 227.276 104.756C227.276 103.606 227.636 102.661 228.356 101.921C229.086 101.17 230.001 100.795 231.101 100.795ZM231.101 101.62C230.481 101.62 230.001 101.905 229.661 102.475C229.331 103.046 229.166 103.806 229.166 104.756C229.166 105.706 229.331 106.471 229.661 107.051C230.001 107.63 230.481 107.92 231.101 107.92C231.721 107.92 232.196 107.63 232.526 107.05C232.866 106.46 233.036 105.695 233.036 104.755C233.036 103.805 232.866 103.045 232.526 102.475C232.196 101.905 231.721 101.62 231.101 101.62ZM236.273 108.4L236.273 106.255L236.963 106.255L237.533 107.83C237.883 107.89 238.273 107.92 238.703 107.92C239.343 107.92 239.793 107.84 240.053 107.68C240.323 107.51 240.458 107.225 240.458 106.825C240.458 106.515 240.313 106.26 240.023 106.06C239.733 105.85 239.233 105.605 238.523 105.325C237.853 105.045 237.333 104.715 236.963 104.335C236.593 103.945 236.408 103.455 236.408 102.865C236.408 102.195 236.688 101.685 237.248 101.335C237.818 100.975 238.558 100.795 239.468 100.795C240.258 100.795 240.973 100.89 241.613 101.08L241.613 103.12L240.983 103.12L240.488 101.71C240.198 101.63 239.858 101.59 239.468 101.59C238.928 101.59 238.548 101.675 238.328 101.845C238.118 102.005 238.013 102.25 238.013 102.58C238.013 102.77 238.083 102.94 238.223 103.09C238.363 103.24 238.518 103.365 238.688 103.465C238.868 103.555 239.153 103.685 239.543 103.855C240.453 104.235 241.103 104.62 241.493 105.01C241.893 105.39 242.093 105.885 242.093 106.495C242.093 107.225 241.798 107.785 241.208 108.175C240.618 108.555 239.848 108.745 238.898 108.745C237.958 108.745 237.083 108.63 236.273 108.4Z" fill="#FAF2ED"/>
<path d="M238.895 289.354L238.895 288.664L243.44 288.664L243.44 289.354L242.21 289.609L244.76 296.809L247.16 289.684L245.975 289.354L245.975 288.664L249.59 288.664L249.59 289.354L248.21 289.684L244.91 299.269L243.725 299.269L240.23 289.684L238.895 289.354ZM253.197 289.384C253.197 289.694 253.087 289.959 252.867 290.179C252.657 290.389 252.397 290.494 252.087 290.494C251.777 290.494 251.512 290.389 251.292 290.179C251.082 289.959 250.977 289.694 250.977 289.384C250.977 289.074 251.082 288.814 251.292 288.604C251.512 288.384 251.777 288.274 252.087 288.274C252.397 288.274 252.657 288.379 252.867 288.589C253.087 288.799 253.197 289.064 253.197 289.384ZM249.882 299.164L249.882 298.519L251.157 298.219L251.157 292.879L249.882 292.879L249.882 292.234L252.282 291.664L252.942 291.664L252.942 298.219L254.217 298.519L254.217 299.164L249.882 299.164ZM255.084 295.324C255.084 294.224 255.399 293.304 256.029 292.564C256.659 291.814 257.529 291.439 258.639 291.439C259.219 291.439 259.724 291.549 260.154 291.769C260.594 291.979 260.939 292.274 261.189 292.654C261.449 293.034 261.639 293.459 261.759 293.929C261.879 294.399 261.939 294.909 261.939 295.459L256.869 295.459C256.939 296.279 257.214 296.979 257.694 297.559C258.174 298.129 258.829 298.414 259.659 298.414C260.189 298.414 260.764 298.299 261.384 298.069L261.639 298.774C260.709 299.184 259.824 299.389 258.984 299.389C257.774 299.389 256.819 298.994 256.119 298.204C255.429 297.414 255.084 296.454 255.084 295.324ZM256.869 294.724L260.079 294.484C260.049 293.884 259.909 293.364 259.659 292.924C259.409 292.484 259.054 292.264 258.594 292.264C258.094 292.264 257.684 292.499 257.364 292.969C257.054 293.439 256.889 294.024 256.869 294.724ZM263.021 292.564L263.021 292.114L265.151 290.299L265.601 290.299L265.601 291.754L267.761 291.664L267.761 292.564L265.601 292.564L265.601 297.154C265.601 298.044 265.956 298.489 266.666 298.489C266.966 298.489 267.326 298.399 267.746 298.219L268.001 298.909C267.381 299.229 266.741 299.389 266.081 299.389C265.361 299.389 264.801 299.219 264.401 298.879C264.011 298.529 263.816 297.929 263.816 297.079L263.816 292.564L263.021 292.564ZM268.661 299.164L268.661 298.519L269.936 298.219L269.936 292.879L268.661 292.879L268.661 292.234L271.061 291.664L271.736 291.664L271.736 292.384C272.496 291.754 273.301 291.439 274.151 291.439C274.931 291.439 275.546 291.659 275.996 292.099C276.446 292.539 276.671 293.104 276.671 293.794L276.671 298.219L277.946 298.519L277.946 299.164L273.911 299.164L273.911 298.519L274.886 298.219L274.886 294.064C274.886 293.044 274.451 292.534 273.581 292.534C272.991 292.534 272.376 292.764 271.736 293.224L271.736 298.219L272.711 298.519L272.711 299.164L268.661 299.164ZM278.651 297.304C278.651 295.574 280.186 294.709 283.256 294.709L283.256 294.184C283.256 293.314 283.131 292.764 282.881 292.534C282.641 292.294 282.261 292.174 281.741 292.174L279.986 293.674C279.746 293.524 279.541 293.314 279.371 293.044C279.211 292.764 279.126 292.469 279.116 292.159C279.536 291.929 279.996 291.754 280.496 291.634C280.996 291.504 281.491 291.439 281.981 291.439C284.031 291.439 285.056 292.299 285.056 294.019L285.056 298.189L286.226 298.189L286.226 298.684C285.996 298.904 285.741 299.074 285.461 299.194C285.181 299.324 284.906 299.389 284.636 299.389C284.046 299.389 283.611 299.134 283.331 298.624C282.661 299.134 281.906 299.389 281.066 299.389C280.406 299.389 279.836 299.214 279.356 298.864C278.886 298.514 278.651 297.994 278.651 297.304ZM280.541 297.244C280.541 297.614 280.661 297.889 280.901 298.069C281.151 298.249 281.466 298.339 281.846 298.339C282.396 298.339 282.866 298.169 283.256 297.829L283.256 295.474C282.356 295.474 281.676 295.639 281.216 295.969C280.766 296.289 280.541 296.714 280.541 297.244ZM286.942 299.164L286.942 298.519L288.217 298.219L288.217 292.879L286.942 292.879L286.942 292.234L289.342 291.664L290.002 291.664L290.002 292.339C290.772 291.739 291.562 291.439 292.372 291.439C293.402 291.439 294.132 291.819 294.562 292.579C295.442 291.819 296.337 291.439 297.247 291.439C298.017 291.439 298.622 291.659 299.062 292.099C299.512 292.539 299.737 293.104 299.737 293.794L299.737 298.219L301.012 298.519L301.012 299.164L296.977 299.164L296.977 298.519L297.952 298.219L297.952 293.989C297.952 293.519 297.837 293.159 297.607 292.909C297.387 292.659 297.072 292.534 296.662 292.534C296.072 292.534 295.457 292.764 294.817 293.224C294.857 293.464 294.877 293.654 294.877 293.794L294.877 298.219L295.852 298.519L295.852 299.164L292.102 299.164L292.102 298.519L293.077 298.219L293.077 293.989C293.077 293.519 292.962 293.159 292.732 292.909C292.512 292.659 292.197 292.534 291.787 292.534C291.227 292.534 290.632 292.744 290.002 293.164L290.002 298.219L290.977 298.519L290.977 299.164L286.942 299.164Z" fill="#FAF2ED"/>
<path d="M163.371 163.434C165.746 165.289 171.478 159.734 177.11 157.944C182.742 156.155 183.988 153.167 181.487 136.458C178.986 119.749 182.112 114.976 187.739 109.01C193.366 103.044 187.739 104.834 185.238 99.46C182.737 94.0858 180.236 93.4942 180.861 88.125C181.487 82.7559 176.485 80.3645 164.575 77.9782C152.664 75.5919 142.687 47.5479 147.064 39.1908C151.44 30.8338 147.689 26.0612 147.064 15.3228C146.438 4.58446 143.312 7.56233 135.805 1M1.1543 227.132C14.3256 218.75 9.0613 217.913 27.5075 235.083C45.7855 252.098 51.2683 257.915 65.711 259.309" stroke="#FAF2ED" stroke-linecap="round" stroke-linejoin="round"/>
<path d="M273.521 143.351C273.521 143.351 279.452 140.909 278.299 140.909C281.346 137.761 284.744 136.713 286.031 135.791C288.521 133.996 280.42 132.206 280.42 128.03C280.42 123.854 281.67 123.257 286.031 117.292C290.392 111.326 289.798 109.531 280.909 105.952C272.019 102.372 264.159 96.4016 264.785 92.2255C265.41 88.0495 271.037 88.6461 277.294 83.8735C283.551 79.1009 279.795 77.9528 279.795 77.9528C276.481 77.5584 273.13 77.5416 269.812 77.9027C264.186 78.4993 261.06 73.7267 259.184 66.5678C257.308 59.4089 253.552 59.4039 249.801 58.2107C246.049 57.0176 246.648 64.778 242.923 62.9833C239.198 61.1886 237.297 58.8073 232.941 53.4582C228.586 48.109 226.064 31.9765 223.563 28.9936C221.062 26.0107 218.561 24.8125 214.18 19.4434" stroke="#FAF2ED" stroke-linecap="round" stroke-linejoin="round"/>
<path d="M256.423 25.7275C266.085 32.4202 307.432 74.3203 317.971 95.2556C328.511 116.191 323.426 151.414 322.565 164.819C321.703 178.225 321.703 191.635 326.957 204.208C332.226 216.776 337.428 215.934 326.889 230.162C316.912 243.63 339.524 271.388 309.287 288.529M138.017 330.514C145.042 328.84 142.247 340.794 149.287 350.013C156.327 359.233 149.287 361.744 148.409 371.801C147.532 381.857 142.262 380.183 138.748 390.239C135.233 400.296 142.262 399.459 152.933 397.759C163.603 396.06 163.325 390.239 164.202 382.674C165.08 375.109 188.796 371.776 197.732 367.585C206.669 363.394 207.237 356.691 217.781 351.663C228.325 346.634 224.805 345.797 228.32 335.741C231.835 325.684 230.075 322.33 231.83 317.517C233.584 312.705 248.521 314.79 256.423 317.517C261.63 319.315 264.932 314.645 276.886 306.455" stroke="#FAF2ED" stroke-linecap="round" stroke-linejoin="round"/>
<path d="M175.766 308.289C184.855 303.952 187.887 306.363 192.936 310.214C197.985 314.064 204.042 314.55 211.618 313.588C219.194 312.625 210.1 309.732 201.52 296.242C192.941 282.751 204.042 276.008 208.587 272.634C213.131 269.261 225.252 282.27 225.252 272.634C225.252 262.999 229.796 272.634 232.823 265.41C235.849 258.186 252.01 252.877 264.13 251.433C276.251 249.99 277.265 242.766 273.219 228.307C269.174 213.849 278.773 209.036 280.286 201.326C281.799 193.616 279.277 187.354 272.768 175.794C266.258 164.233 274.228 162.759 273.219 156.037C272.752 152.7 272.646 149.327 272.904 145.97C273.036 144.16 273.219 143.032 273.219 143.032C273.219 143.032 266.148 147.364 257.563 147.85C248.978 148.336 250.497 154.593 242.921 157.004C235.345 159.415 237.541 149.605 229.965 149.605C222.389 149.605 205.519 157.355 210.063 165.542C214.608 173.728 213.131 172.42 208.082 177.719C203.034 183.018 202.529 174.741 192.936 169.146C188.002 166.264 179.827 171.277 171.726 168.75C169.031 167.908 166.336 166.108 163.803 164.188C159.164 160.679 155.082 156.728 152.539 157.485C144.464 159.892 136.383 155.555 106.594 154.593C76.805 153.63 65.6932 168.083 62.1574 174.345C58.6215 180.606 60.6443 183.985 46.5062 190.247C32.3682 196.508 46.5062 221.083 46.5062 226.382C46.5062 231.681 53.0683 233.611 58.1172 240.835C61.2695 245.347 61.2695 251.769 61.695 257.71L62.0786 257.745C62.3465 260.648 62.8089 263.375 63.9122 265.631C67.448 272.855 75.5284 283.939 76.5213 292.612C77.5143 301.285 73.9942 307.547 82.579 308.99C91.1637 310.434 90.155 299.836 92.6769 295.986C95.1987 292.136 100.757 297.43 102.775 305.14C103.232 306.875 103.195 308.048 102.869 308.9C103.043 313.537 97.9044 312.179 96.7013 316.59C96.4806 323.108 103.374 326.732 108.333 322C113.382 317.182 120.942 320.556 124.489 321.498C128.035 322.441 132.569 328.728 135.595 330.171C135.737 330.798 135.913 331.417 136.121 332.026C139.914 332.096 149.865 324.1 154.567 323.203C159.611 322.26 166.677 312.625 175.766 308.289Z" fill="white"/>
<path d="M272.904 145.97C273.036 144.16 273.219 143.032 273.219 143.032C273.219 143.032 266.148 147.364 257.563 147.85C248.978 148.336 250.497 154.593 242.921 157.004C235.345 159.415 237.541 149.605 229.965 149.605C222.389 149.605 205.519 157.355 210.063 165.542C214.608 173.728 213.131 172.42 208.082 177.719C203.034 183.018 202.529 174.741 192.936 169.146C188.002 166.264 179.827 171.277 171.726 168.75C169.031 167.908 166.336 166.108 163.803 164.188C159.164 160.679 155.082 156.728 152.539 157.485C144.464 159.892 136.383 155.555 106.594 154.593C76.805 153.63 65.6932 168.083 62.1574 174.345C58.6215 180.606 60.6443 183.985 46.5062 190.247C32.3682 196.508 46.5062 221.083 46.5062 226.382C46.5062 231.681 53.0682 233.611 58.1172 240.835C61.2695 245.347 61.2695 251.769 61.695 257.71L62.0786 257.745C62.3465 260.648 62.8089 263.375 63.9122 265.631C67.448 272.855 75.5284 283.939 76.5213 292.612C77.5143 301.285 73.9942 307.547 82.579 308.99C91.1637 310.434 90.155 299.836 92.6769 295.986C95.1987 292.136 100.757 297.43 102.775 305.14C103.232 306.875 103.195 308.048 102.869 308.9C103.043 313.537 97.9044 312.179 96.7013 316.59C96.4806 323.108 103.374 326.732 108.333 322C113.382 317.182 120.942 320.556 124.489 321.498C128.035 322.441 132.569 328.728 135.595 330.171C135.737 330.798 135.913 331.417 136.121 332.026C139.914 332.096 149.865 324.1 154.567 323.203C159.616 322.24 166.682 312.605 175.771 308.269C184.86 303.932 187.892 306.343 192.941 310.194C197.99 314.044 204.048 314.53 211.624 313.568C219.2 312.605 210.105 309.712 201.526 296.222C192.946 282.731 204.047 275.988 208.592 272.614C213.137 269.24 225.257 282.25 225.257 272.614C225.257 262.979 229.802 272.614 232.828 265.39C235.854 258.166 252.015 252.857 264.135 251.413C276.256 249.97 277.27 242.746 273.225 228.287C269.179 213.829 278.778 209.016 280.291 201.306C281.804 193.596 279.282 187.334 272.773 175.774C266.263 164.213 274.233 162.739 273.225 156.017C272.757 152.68 272.652 149.307 272.909 145.95" fill="#FAF2ED"/>
<path d="M102.235 224.426C102.235 222.092 102.855 220.292 104.095 219.026C105.348 217.759 107.175 217.126 109.575 217.126C110.215 217.126 110.908 217.206 111.655 217.366C112.402 217.512 113.008 217.692 113.475 217.906L113.475 221.606L112.355 221.606L111.475 218.786C111.022 218.706 110.642 218.666 110.335 218.666C108.668 218.666 107.455 219.132 106.695 220.066C105.935 220.986 105.555 222.439 105.555 224.426C105.555 226.399 105.915 227.852 106.635 228.786C107.355 229.719 108.475 230.186 109.995 230.186C110.315 230.186 110.688 230.152 111.115 230.086L112.595 227.066L113.715 227.066L113.195 230.746C112.728 230.999 112.128 231.226 111.395 231.426C110.675 231.626 109.955 231.726 109.235 231.726C106.995 231.726 105.268 231.092 104.055 229.826C102.842 228.546 102.235 226.746 102.235 224.426ZM115.1 228.946C115.1 227.786 115.573 226.906 116.52 226.306C117.48 225.692 119.027 225.386 121.16 225.386L121.16 224.786C121.16 224.386 121.153 224.099 121.14 223.926C121.14 223.739 121.113 223.519 121.06 223.266C121.007 223.012 120.927 222.832 120.82 222.726C120.727 222.619 120.58 222.526 120.38 222.446C120.18 222.352 119.933 222.306 119.64 222.306L117.1 224.506C116.193 223.986 115.74 223.179 115.74 222.086L116.34 221.826C116.593 221.719 117.087 221.579 117.82 221.406C118.553 221.219 119.267 221.126 119.96 221.126C122.827 221.126 124.26 222.272 124.26 224.566L124.26 229.926L125.82 229.926L125.82 230.786C125.753 230.852 125.66 230.939 125.54 231.046C125.42 231.152 125.16 231.292 124.76 231.466C124.36 231.639 123.947 231.726 123.52 231.726C122.507 231.726 121.753 231.386 121.26 230.706C120.367 231.386 119.393 231.726 118.34 231.726C117.42 231.726 116.647 231.492 116.02 231.026C115.407 230.559 115.1 229.866 115.1 228.946ZM118.32 228.766C118.32 229.152 118.447 229.459 118.7 229.686C118.967 229.912 119.287 230.026 119.66 230.026C120.26 230.026 120.76 229.806 121.16 229.366L121.16 226.626C120.413 226.626 119.753 226.826 119.18 227.226C118.607 227.612 118.32 228.126 118.32 228.766ZM126.545 231.426L126.545 230.366L128.245 229.966L128.245 223.246L126.545 223.246L126.545 222.186L129.745 221.426L131.325 221.426L131.325 222.246C132.232 221.499 133.219 221.126 134.285 221.126C135.632 221.126 136.619 221.606 137.245 222.566C138.299 221.606 139.445 221.126 140.685 221.126C141.725 221.126 142.552 221.419 143.165 222.006C143.792 222.592 144.105 223.346 144.105 224.266L144.105 229.966L145.805 230.366L145.805 231.426L139.725 231.426L139.725 230.366L141.025 229.966L141.025 224.526C141.025 223.912 140.905 223.486 140.665 223.246C140.425 223.006 140.052 222.886 139.545 222.886C138.985 222.886 138.359 223.152 137.665 223.686C137.705 223.886 137.725 224.079 137.725 224.266L137.725 229.966L139.025 230.366L139.025 231.426L133.325 231.426L133.325 230.366L134.625 229.966L134.625 224.526C134.625 223.912 134.505 223.486 134.265 223.246C134.025 223.006 133.659 222.886 133.165 222.886C132.619 222.886 132.005 223.126 131.325 223.606L131.325 229.966L132.625 230.366L132.625 231.426L126.545 231.426ZM145.566 217.246L145.566 216.186L148.766 215.426L150.346 215.426L150.346 222.146C151.172 221.466 152.132 221.126 153.226 221.126C154.466 221.126 155.466 221.539 156.226 222.366C156.999 223.179 157.386 224.406 157.386 226.046C157.386 227.259 157.072 228.306 156.446 229.186C155.832 230.066 155.066 230.712 154.146 231.126C153.239 231.526 152.259 231.726 151.206 231.726C149.686 231.726 148.372 231.386 147.266 230.706L147.266 217.246L145.566 217.246ZM150.346 230.366C150.506 230.392 150.732 230.406 151.026 230.406C151.932 230.406 152.686 230.039 153.286 229.306C153.899 228.572 154.206 227.512 154.206 226.126C154.206 223.926 153.532 222.826 152.186 222.826C151.666 222.826 151.052 223.026 150.346 223.426L150.346 230.366ZM164.154 231.726C163.394 231.726 162.68 231.592 162.014 231.326C161.36 231.059 160.794 230.692 160.314 230.226C159.834 229.759 159.454 229.199 159.174 228.546C158.894 227.892 158.754 227.179 158.754 226.406C158.754 225.632 158.894 224.926 159.174 224.286C159.454 223.632 159.834 223.072 160.314 222.606C160.794 222.139 161.36 221.779 162.014 221.526C162.68 221.259 163.394 221.126 164.154 221.126C164.914 221.126 165.62 221.259 166.274 221.526C166.927 221.779 167.494 222.139 167.974 222.606C168.467 223.072 168.847 223.632 169.114 224.286C169.394 224.926 169.534 225.632 169.534 226.406C169.534 227.166 169.394 227.872 169.114 228.526C168.847 229.179 168.467 229.746 167.974 230.226C167.494 230.692 166.927 231.059 166.274 231.326C165.62 231.592 164.914 231.726 164.154 231.726ZM161.974 226.406C161.974 227.659 162.154 228.646 162.514 229.366C162.887 230.072 163.434 230.426 164.154 230.426C164.874 230.426 165.414 230.072 165.774 229.366C166.147 228.646 166.334 227.659 166.334 226.406C166.334 225.166 166.147 224.192 165.774 223.486C165.414 222.779 164.874 222.426 164.154 222.426C163.434 222.426 162.887 222.779 162.514 223.486C162.154 224.192 161.974 225.166 161.974 226.406ZM170.903 226.786C170.903 224.986 171.47 223.592 172.603 222.606C173.75 221.619 175.143 221.126 176.783 221.126C177.196 221.126 177.583 221.166 177.943 221.246L177.943 217.246L176.243 217.246L176.243 216.186L179.443 215.426L181.043 215.426L181.043 229.926L182.603 229.926L182.603 230.786C182.523 230.852 182.41 230.939 182.263 231.046C182.13 231.152 181.856 231.292 181.443 231.466C181.03 231.639 180.636 231.726 180.263 231.726C179.703 231.726 179.23 231.592 178.843 231.326C178.47 231.059 178.203 230.772 178.043 230.466C177.31 231.306 176.41 231.726 175.343 231.726C174.13 231.726 173.083 231.306 172.203 230.466C171.336 229.612 170.903 228.386 170.903 226.786ZM174.063 226.706C174.063 227.799 174.296 228.626 174.763 229.186C175.243 229.746 175.716 230.026 176.183 230.026C176.85 230.026 177.436 229.779 177.943 229.286L177.943 222.566C177.57 222.472 177.243 222.426 176.963 222.426C176.083 222.426 175.376 222.779 174.843 223.486C174.323 224.179 174.063 225.252 174.063 226.706ZM183.039 234.466C183.039 233.399 183.632 232.552 184.819 231.926C184.459 231.672 184.172 231.346 183.959 230.946C183.879 230.786 183.812 230.599 183.759 230.386C183.719 230.172 183.712 229.952 183.739 229.726L186.039 227.746C185.346 227.439 184.806 227.026 184.419 226.506C184.032 225.972 183.839 225.386 183.839 224.746C183.839 223.786 184.292 222.972 185.199 222.306C186.106 221.626 187.252 221.286 188.639 221.286C189.839 221.286 190.879 221.552 191.759 222.086L194.879 220.926C195.039 221.246 195.119 221.599 195.119 221.986C195.119 222.439 195.092 222.779 195.039 223.006L192.839 223.006C193.266 223.566 193.479 224.146 193.479 224.746C193.479 225.732 193.039 226.559 192.159 227.226C191.292 227.879 190.119 228.206 188.639 228.206C188.159 228.206 187.806 228.199 187.579 228.186L186.699 229.406C186.859 229.672 187.079 229.839 187.359 229.906C187.639 229.959 188.112 229.986 188.779 229.986L190.239 229.986C191.559 229.986 192.572 230.279 193.279 230.866C193.999 231.452 194.359 232.272 194.359 233.326C194.359 234.352 193.859 235.246 192.859 236.006C191.872 236.779 190.486 237.166 188.699 237.166C184.926 237.166 183.039 236.266 183.039 234.466ZM186.079 234.026C186.079 235.252 186.932 235.866 188.639 235.866C189.759 235.866 190.619 235.679 191.219 235.306C191.819 234.932 192.119 234.466 192.119 233.906C192.119 233.479 191.946 233.152 191.599 232.926C191.252 232.712 190.619 232.606 189.699 232.606L186.519 232.606C186.226 233.019 186.079 233.492 186.079 234.026ZM188.639 226.926C189.292 226.926 189.779 226.726 190.099 226.326C190.419 225.912 190.579 225.386 190.579 224.746C190.579 224.106 190.419 223.579 190.099 223.166C189.779 222.739 189.292 222.526 188.639 222.526C187.959 222.526 187.472 222.739 187.179 223.166C186.886 223.579 186.739 224.106 186.739 224.746C186.739 225.386 186.886 225.912 187.179 226.326C187.472 226.726 187.959 226.926 188.639 226.926ZM195.805 226.306C195.805 224.732 196.245 223.479 197.125 222.546C198.019 221.599 199.225 221.126 200.745 221.126C202.292 221.126 203.459 221.652 204.245 222.706C205.045 223.759 205.445 225.059 205.445 226.606L198.885 226.606C198.979 227.592 199.332 228.446 199.945 229.166C200.559 229.872 201.345 230.226 202.305 230.226C203.025 230.226 203.799 230.072 204.625 229.766L205.045 230.906C203.805 231.452 202.592 231.726 201.405 231.726C199.685 231.726 198.319 231.226 197.305 230.226C196.305 229.212 195.805 227.906 195.805 226.306ZM198.885 225.366L202.265 225.146C202.265 224.826 202.245 224.532 202.205 224.266C202.165 223.986 202.052 223.652 201.865 223.266C201.532 222.706 201.139 222.426 200.685 222.426C200.152 222.426 199.712 222.699 199.365 223.246C199.165 223.579 199.032 223.946 198.965 224.346C198.899 224.746 198.872 225.086 198.885 225.366Z" fill="#0E0D22"/>
</svg>
