<svg width="44" height="44" viewBox="0 0 44 44" fill="none" xmlns="http://www.w3.org/2000/svg">
<path fill-rule="evenodd" clip-rule="evenodd" d="M32.173 32.1734C26.5104 37.836 17.3295 37.836 11.6669 32.1734C6.00427 26.5108 6.00427 17.3299 11.6669 11.6673C17.3295 6.00466 26.5104 6.00466 32.173 11.6673C37.8356 17.3299 37.8356 26.5108 32.173 32.1734ZM32.8801 32.8805C26.827 38.9336 17.0129 38.9336 10.9598 32.8805C4.90664 26.8273 4.90664 17.0133 10.9598 10.9602C17.0129 4.90703 26.827 4.90703 32.8801 10.9602C38.9332 17.0133 38.9332 26.8273 32.8801 32.8805ZM29.3445 29.3451C25.244 33.4456 18.5958 33.4456 14.4953 29.3451C10.3948 25.2446 10.3948 18.5963 14.4953 14.4958C18.5958 10.3953 25.244 10.3953 29.3445 14.4958C33.445 18.5963 33.445 25.2446 29.3445 29.3451ZM16.2143 25.8398L20.3508 21.7033L16.49 17.8425L17.8053 16.5272L21.6661 20.388L25.8026 16.2515L27.1815 17.6303L23.0449 21.7669L26.9057 25.6277L25.5905 26.9429L21.7297 23.0821L17.5931 27.2187L16.2143 25.8398Z" fill="#FAF2ED"/>
</svg>
