<svg width="43" height="11" viewBox="0 0 43 11" fill="none" xmlns="http://www.w3.org/2000/svg">
    <path
        d="M38.353 2.60165C39.3917 3.02425 40.1235 4.02794 40.1235 5.2C40.1235 6.37206 39.3917 7.37574 38.353 7.80495L37.8 6.50413C38.3193 6.28952 38.6835 5.78768 38.6835 5.2033C38.6835 4.61562 38.3193 4.11378 37.8 3.90248L38.353 2.60165Z"
        fill="#faf2ed" />
    <path
        d="M38.9061 1.30083L39.4591 0C41.5398 0.848508 43 2.85587 43 5.2C43 7.54413 41.5398 9.55149 39.4591 10.4L38.9061 9.09917C40.4674 8.46197 41.5634 6.95975 41.5634 5.2C41.5634 3.44356 40.4674 1.93803 38.9061 1.30083Z"
        fill="#faf2ed" />
    <path d="M30 3.03266V7.36531H32.3634L36.5 10.4V0L32.3634 3.03266H30Z" fill="#faf2ed" />
    <line x1="-6" y1="5.5" x2="23" y2="5.5" stroke="#faf2ed" />
</svg>