<svg width="125" height="304" viewBox="0 0 125 304" fill="none" xmlns="http://www.w3.org/2000/svg">
<path d="M-28.6747 121.175C-33.1111 117.729 -40.6594 119.179 -46.8448 120.836C-52.6619 122.394 -60.4739 124.101 -61.4988 129.742C-62.3246 134.287 -59.8252 141.537 -53.8046 142.541C-52.027 142.837 -53.0474 140.602 -53.2868 140.276C-55.3439 137.473 -59.9261 136.572 -63.9445 136.182C-78.3371 134.784 -95.6001 141.25 -102.699 153.182C-112.221 169.186 -107.498 189.828 -99.1503 202.986C-94.2581 210.698 -86.6075 219.728 -74.3752 220.73C-66.0757 221.41 -55.6956 218.317 -48.7209 213.593C-41.8013 208.907 -36.8174 202.246 -33.8956 195.772C-32.3418 192.33 -30.4168 187.36 -32.3233 184.192C-34.3565 180.814 -38.7407 183.991 -41.291 186.083C-51.0606 194.099 -58.0175 203.562 -61.8173 213.78C-65.967 224.939 -67.8944 237.06 -66.563 247.947C-65.6013 255.812 -62.4499 264.39 -53.3612 267.953C-37.6838 274.098 -14.7303 269.643 2.77772 264.834C24.7784 258.791 45.5948 248.52 60.6967 233.339C88.695 205.195 88.729 165.99 69.2863 140.639C56.0788 123.418 22.4264 116.485 -2.13085 133.279C-18.4564 144.445 -27.7973 166.236 -20.201 180.005C-16.5874 186.555 -9.67244 188.506 -0.0523779 187.228C14.2419 185.329 30.308 179.957 40.9642 170.725C70.8983 144.789 68.9256 103.922 38.7054 86.9026C25.5503 79.494 8.0255 77.551 -9.42585 82.1146C-27.2833 86.7843 -41.1782 97.3164 -50.5057 110.413C-68.0744 135.08 -72.2488 168.271 -54.7368 189.18C-48.7245 196.359 -38.6295 200.893 -26.277 198.162C-7.19025 193.942 10.9701 180.754 22.2713 167.668C36.0806 151.678 41.5725 133.003 41.9592 115.439C42.2684 101.393 39.8534 86.2632 27.2771 77.1396C16.9906 69.6771 2.31634 68.6621 -12.296 74.0313C-32.3178 81.3881 -43.3896 96.7318 -51.0861 111.998C-62.2588 134.16 -67.4472 157.381 -69.0444 179.905C-70.2092 196.332 -69.197 212.83 -64.2374 228.052C-61.4052 236.744 -57.1907 246.471 -44.1998 247.405C-24.6788 248.809 -5.4559 231.212 6.9638 220.326C29.6281 200.46 50.3187 178.052 65.0435 154.447C75.3692 137.894 81.2671 120.817 79.4321 103.775C77.9444 89.9589 70.6796 81.3489 54.9943 76.422C39.4675 71.5449 23.6395 72.9224 6.25324 77.3674C-12.166 82.0765 -25.864 89.4372 -38.693 101.749C-51.2728 113.823 -57.8496 126.032 -61.2071 140.461C-64.2999 153.752 -64.0258 165.889 -59.6984 177.98C-56.0387 188.205 -50.6852 198.961 -39.3489 204.724C-26.8138 211.096 -10.0673 206.944 4.19405 201.048C26.8306 191.689 41.8124 177.287 50.4679 158.752C62.06 133.93 65.4507 107.111 63.4401 82.5969C61.8721 63.4787 57.3299 42.3945 45.9103 26.4732C40.436 18.8408 31.3912 12.4237 19.4786 11.4477C10.4185 10.7053 4.04219 16.3118 -1.25219 22.2773C-12.8739 35.3722 -15.7515 49.18 -15.7367 63.5666C-15.7105 89.0425 -10.8761 114.416 -3.54016 138.221C3.34184 160.552 13.6957 181.992 28.0879 201.151C35.0745 210.451 40.7769 216.659 49.6334 224.712C61.1964 235.227 74.8208 243.386 87.8444 252.652" stroke="#B58DFC" stroke-linecap="round" stroke-linejoin="round"/>
</svg>
