<svg width="272" height="304" viewBox="0 0 272 304" fill="none" xmlns="http://www.w3.org/2000/svg">
<path d="M118.325 121.175C113.889 117.729 106.341 119.179 100.155 120.836C94.3381 122.394 86.5261 124.101 85.5012 129.742C84.6754 134.287 87.1748 141.537 93.1954 142.541C94.973 142.837 93.9526 140.602 93.7132 140.276C91.6561 137.473 87.0739 136.572 83.0555 136.182C68.6629 134.784 51.3999 141.25 44.3006 153.182C34.7794 169.186 39.5022 189.828 47.8497 202.986C52.7419 210.698 60.3925 219.728 72.6248 220.73C80.9243 221.41 91.3044 218.317 98.2791 213.593C105.199 208.907 110.183 202.246 113.104 195.772C114.658 192.33 116.583 187.36 114.677 184.192C112.644 180.814 108.259 183.991 105.709 186.083C95.9394 194.099 88.9825 203.562 85.1827 213.78C81.033 224.939 79.1056 237.06 80.437 247.947C81.3987 255.812 84.5501 264.39 93.6388 267.953C109.316 274.098 132.27 269.643 149.778 264.834C171.778 258.791 192.595 248.52 207.697 233.339C235.695 205.195 235.729 165.99 216.286 140.639C203.079 123.418 169.426 116.485 144.869 133.279C128.544 144.445 119.203 166.236 126.799 180.005C130.413 186.555 137.328 188.506 146.948 187.228C161.242 185.329 177.308 179.957 187.964 170.725C217.898 144.789 215.926 103.922 185.705 86.9026C172.55 79.494 155.025 77.551 137.574 82.1146C119.717 86.7843 105.822 97.3164 96.4943 110.413C78.9256 135.08 74.7512 168.271 92.2632 189.18C98.2755 196.359 108.371 200.893 120.723 198.162C139.81 193.942 157.97 180.754 169.271 167.668C183.081 151.678 188.573 133.003 188.959 115.439C189.268 101.393 186.853 86.2632 174.277 77.1396C163.991 69.6771 149.316 68.6621 134.704 74.0313C114.682 81.3881 103.61 96.7318 95.9139 111.998C84.7412 134.16 79.5528 157.381 77.9556 179.905C76.7908 196.332 77.803 212.83 82.7626 228.052C85.5948 236.744 89.8093 246.471 102.8 247.405C122.321 248.809 141.544 231.212 153.964 220.326C176.628 200.46 197.319 178.052 212.044 154.447C222.369 137.894 228.267 120.817 226.432 103.775C224.944 89.9589 217.68 81.3489 201.994 76.422C186.467 71.5449 170.639 72.9224 153.253 77.3674C134.834 82.0765 121.136 89.4372 108.307 101.749C95.7272 113.823 89.1504 126.032 85.7929 140.461C82.7001 153.752 82.9742 165.889 87.3016 177.98C90.9613 188.205 96.3148 198.961 107.651 204.724C120.186 211.096 136.933 206.944 151.194 201.048C173.831 191.689 188.812 177.287 197.468 158.752C209.06 133.93 212.451 107.111 210.44 82.5969C208.872 63.4787 204.33 42.3945 192.91 26.4732C187.436 18.8408 178.391 12.4237 166.479 11.4477C157.419 10.7053 151.042 16.3118 145.748 22.2773C134.126 35.3722 131.249 49.18 131.263 63.5666C131.289 89.0425 136.124 114.416 143.46 138.221C150.342 160.552 160.696 181.992 175.088 201.151C182.074 210.451 187.777 216.659 196.633 224.712C208.196 235.227 221.821 243.386 234.844 252.652" stroke="#B58DFC" stroke-linecap="round" stroke-linejoin="round"/>
</svg>
