<svg width="5" height="20" viewBox="0 0 5 20" fill="none" xmlns="http://www.w3.org/2000/svg">
<path d="M4.426 17.2642C4.426 17.5402 4.378 17.7982 4.282 18.0382C4.174 18.2782 4.024 18.4942 3.832 18.6862C3.64 18.8662 3.412 19.0102 3.148 19.1182C2.884 19.2262 2.59 19.2802 2.266 19.2802C1.942 19.2802 1.648 19.2262 1.384 19.1182C1.108 19.0102 0.88 18.8662 0.7 18.6862C0.508 18.4942 0.358 18.2782 0.249999 18.0382C0.142 17.7982 0.0879999 17.5402 0.0879999 17.2642C0.0879999 17.0002 0.142 16.7482 0.249999 16.5082C0.358 16.2562 0.508 16.0402 0.7 15.8602C0.88 15.6682 1.108 15.5182 1.384 15.4102C1.648 15.3022 1.942 15.2482 2.266 15.2482C2.59 15.2482 2.884 15.3022 3.148 15.4102C3.412 15.5182 3.64 15.6682 3.832 15.8602C4.024 16.0402 4.174 16.2562 4.282 16.5082C4.378 16.7482 4.426 17.0002 4.426 17.2642ZM4.426 9.9974C4.426 10.2734 4.378 10.5314 4.282 10.7714C4.174 11.0114 4.024 11.2274 3.832 11.4194C3.64 11.5994 3.412 11.7434 3.148 11.8514C2.884 11.9594 2.59 12.0134 2.266 12.0134C1.942 12.0134 1.648 11.9594 1.384 11.8514C1.108 11.7434 0.88 11.5994 0.7 11.4194C0.508 11.2274 0.358 11.0114 0.249999 10.7714C0.142 10.5314 0.0879999 10.2734 0.0879999 9.9974C0.0879999 9.7334 0.142 9.4814 0.249999 9.2414C0.358 8.9894 0.508 8.7734 0.7 8.5934C0.88 8.4014 1.108 8.2514 1.384 8.1434C1.648 8.0354 1.942 7.9814 2.266 7.9814C2.59 7.9814 2.884 8.0354 3.148 8.1434C3.412 8.2514 3.64 8.4014 3.832 8.5934C4.024 8.7734 4.174 8.9894 4.282 9.2414C4.378 9.4814 4.426 9.7334 4.426 9.9974ZM4.426 2.7306C4.426 3.0066 4.378 3.2646 4.282 3.5046C4.174 3.7446 4.024 3.9606 3.832 4.1526C3.64 4.3326 3.412 4.4766 3.148 4.5846C2.884 4.6926 2.59 4.7466 2.266 4.7466C1.942 4.7466 1.648 4.6926 1.384 4.5846C1.108 4.4766 0.88 4.3326 0.7 4.1526C0.508 3.9606 0.358 3.7446 0.249999 3.5046C0.142 3.2646 0.0879999 3.0066 0.0879999 2.7306C0.0879999 2.4666 0.142 2.2146 0.249999 1.9746C0.358 1.7226 0.508 1.5066 0.7 1.3266C0.88 1.1346 1.108 0.984602 1.384 0.876602C1.648 0.768602 1.942 0.714602 2.266 0.714602C2.59 0.714602 2.884 0.768602 3.148 0.876602C3.412 0.984602 3.64 1.1346 3.832 1.3266C4.024 1.5066 4.174 1.7226 4.282 1.9746C4.378 2.2146 4.426 2.4666 4.426 2.7306Z" fill="#292A2E"/>
</svg>
