<svg width="230" height="23" viewBox="0 0 230 23" fill="none" xmlns="http://www.w3.org/2000/svg">
<path d="M3.79 22V21.32H5.25V16.62H4.09V16.09C4.38333 16.0367 4.63667 15.9733 4.85 15.9C5.07 15.82 5.26667 15.7267 5.44 15.62H6.07V21.32H7.39V22H3.79Z" fill="#FAF2ED"/>
<path d="M57.4 22V21.51C57.88 21.03 58.3067 20.5967 58.68 20.21C59.0533 19.8233 59.3667 19.4667 59.62 19.14C59.8733 18.8067 60.0667 18.5033 60.2 18.23C60.3333 17.95 60.4 17.68 60.4 17.42C60.4 17.0533 60.3 16.7533 60.1 16.52C59.9 16.2867 59.5967 16.17 59.19 16.17C58.9233 16.17 58.6767 16.2467 58.45 16.4C58.2233 16.5467 58.0167 16.7267 57.83 16.94L57.36 16.47C57.6267 16.1767 57.91 15.9433 58.21 15.77C58.51 15.59 58.87 15.5 59.29 15.5C59.8833 15.5 60.35 15.6733 60.69 16.02C61.03 16.36 61.2 16.8133 61.2 17.38C61.2 17.68 61.1333 17.9833 61 18.29C60.8733 18.59 60.6933 18.9033 60.46 19.23C60.2333 19.55 59.96 19.8867 59.64 20.24C59.3267 20.5867 58.98 20.9567 58.6 21.35C58.7733 21.3367 58.9533 21.3233 59.14 21.31C59.3267 21.2967 59.5033 21.29 59.67 21.29H61.52V22H57.4Z" fill="#FAF2ED"/>
<path d="M114.43 22.12C113.91 22.12 113.47 22.04 113.11 21.88C112.75 21.7133 112.453 21.4933 112.22 21.22L112.9 20.29C113.093 20.4767 113.303 20.63 113.53 20.75C113.763 20.87 114.017 20.93 114.29 20.93C114.603 20.93 114.853 20.8667 115.04 20.74C115.227 20.6067 115.32 20.42 115.32 20.18C115.32 20.04 115.293 19.9133 115.24 19.8C115.193 19.6867 115.107 19.5933 114.98 19.52C114.853 19.44 114.68 19.38 114.46 19.34C114.24 19.2933 113.957 19.27 113.61 19.27V18.23C113.897 18.23 114.133 18.21 114.32 18.17C114.513 18.13 114.667 18.0733 114.78 18C114.9 17.92 114.983 17.83 115.03 17.73C115.083 17.6233 115.11 17.5067 115.11 17.38C115.11 17.16 115.043 16.99 114.91 16.87C114.777 16.7433 114.583 16.68 114.33 16.68C114.103 16.68 113.897 16.73 113.71 16.83C113.53 16.93 113.34 17.0667 113.14 17.24L112.4 16.34C112.693 16.0867 113 15.89 113.32 15.75C113.647 15.6033 114.007 15.53 114.4 15.53C114.727 15.53 115.023 15.57 115.29 15.65C115.563 15.7233 115.793 15.8367 115.98 15.99C116.173 16.1367 116.323 16.3167 116.43 16.53C116.537 16.7433 116.59 16.99 116.59 17.27C116.59 17.6033 116.497 17.8867 116.31 18.12C116.13 18.3467 115.87 18.5333 115.53 18.68V18.72C115.897 18.8267 116.197 19.01 116.43 19.27C116.67 19.5233 116.79 19.8567 116.79 20.27C116.79 20.5633 116.727 20.8267 116.6 21.06C116.473 21.2867 116.303 21.48 116.09 21.64C115.877 21.7933 115.627 21.9133 115.34 22C115.053 22.08 114.75 22.12 114.43 22.12Z" fill="#FAF2ED"/>
<path d="M170.04 22V20.24H167.17V19.7L169.9 15.62H170.82V19.58H171.69V20.24H170.82V22H170.04ZM168.04 19.58H170.04V17.73C170.04 17.5567 170.043 17.3533 170.05 17.12C170.063 16.88 170.077 16.6733 170.09 16.5H170.05C169.97 16.6533 169.887 16.8033 169.8 16.95C169.713 17.0967 169.623 17.2467 169.53 17.4L168.04 19.58Z" fill="#FAF2ED"/>
<path d="M5 5L228 5.00002" stroke="#757271" stroke-linecap="round"/>
<path d="M5 5H34" stroke="#FAF2ED" stroke-linecap="round"/>
<circle cx="5" cy="5" r="4.5" stroke="#FAF2ED"/>
<circle cx="60" cy="5" r="2" fill="#FAF2ED"/>
<circle cx="115" cy="5" r="2" fill="#FAF2ED"/>
<circle cx="170" cy="5" r="2" fill="#757271"/>
<circle cx="228" cy="5" r="2" fill="#757271"/>
<circle cx="5" cy="5" r="2" fill="#FAF2ED"/>
</svg>
