<svg width="371" height="11682" viewBox="0 0 371 11682" fill="none" xmlns="http://www.w3.org/2000/svg">
    <path d="M 237.734 1
        C 252.067 81.3333 264.735 131 202.734 248
        C 148.83 349.722 147.734 512.5 182.234 581
        C 216.734 649.5 291.235 752.5 202.734 764 
        C 157.747 769.846 91.512 736.775 47.2334 808 
        C 4.40591 876.891 -24.7666 977 56.234 1049
        C 137.235 1121 240.489 1126.5 314.233 1049
        C 384.71 974.934 359.233 830.5 314.233 785.5
        C 269.234 740.5 111.44 733.334 50.734 823.5
        C 9.1282 885.297 -0.76569 947.5 56.234 1023.5
        C 113.234 1099.5 239.067 1070.62 253.482 1108
        C 262.234 1130.69 195.734 1154.5 195.734 1217.5
        C 195.734 1299.5 314.233 1457 297.733 1535
        C 281.233 1613 139.734 1894 227.734 1982
        C 315.734 2070 20.6256 2342.89 153.734 2476
        C 310.734 2633 -29.2664 3036 58.7336 3060
        C 146.734 3084 104.496 3398.47 144.734 3609
        C 180.285 3795.01 122.392 3965.45 104.734 4154
        C 91.0737 4299.86 215.734 4409.5 215.734 4556
        C 215.734 4701 125.734 4662 175.734 4891
        C 225.734 5120 121.396 5242.81 118.734 5470
        C 115.711 5727.91 324.833 5962.48 147.734 6150
        C 11.7337 6294 358.26 6421.16 270.733 6578
        C 236.949 6638.54 147.734 6738.67 147.734 6808
        C 147.734 6962 151.88 7522.57 201.735 7658
        C 335.735 8022 76.7347 8274 141.735 8496
        C 206.735 8718 283.106 9125.15 164.596 9144
        C 86.0369 9156.5 126.515 9172.21 151.735 9228
        C 85.7347 9302 277.734 9702 277.734 9856
        C 277.734 10010.3 23.7347 10517 164.735 10658
        C 305.735 10799 204.734 11186 240.734 11266
        C 276.734 11346 276.527 11316.4 302.735 11352
        C 343.635 11407.6 347.362 11435 349.734 11504
        C 351.61 11558.5 369.407 11558.5 329.734 11596
        C 306.102 11618.3 272.611 11631.7 240.734 11638
        C 182.608 11649.5 154.914 11638.6 99.7348 11617
        C 60.9964 11601.8 30.8736 11603.8 9.73485 11568
        C -18.6673 11519.9 30.8644 11429.7 35.734 11374
        C 41.0806 11312.9 12.0039 11319.9 57.734 11279
        C 90.8923 11249.3 125.253 11256.7 169.734 11258
        C 217.836 11259.4 228.108 11294.7 267.735 11322
        C 299.232 11343.7 317.3 11353.5 335.734 11387
        C 368.473 11446.5 376.953 11492.8 361.734 11559
        C 348.093 11618.3 315.452 11636.3 261.734 11665
        C 210.746 11692.2 177.553 11680.1 123.735 11659
        C 49.1675 11629.8 13.1822 11525.6 4.73405 11446
        C -1.97566 11382.8 13.5215 11337.7 57.734 11292" stroke="#0E0D22" stroke-width="2" stroke-linecap="round"
        stroke-linejoin="round" />
</svg>