<svg width="227" height="23" viewBox="0 0 227 23" fill="none" xmlns="http://www.w3.org/2000/svg">
<path d="M0.79 22V21.32H2.25V16.62H1.09V16.09C1.38333 16.0367 1.63667 15.9733 1.85 15.9C2.07 15.82 2.26667 15.7267 2.44 15.62H3.07V21.32H4.39V22H0.79Z" fill="#FAF2ED"/>
<path d="M54.4 22V21.51C54.88 21.03 55.3067 20.5967 55.68 20.21C56.0533 19.8233 56.3667 19.4667 56.62 19.14C56.8733 18.8067 57.0667 18.5033 57.2 18.23C57.3333 17.95 57.4 17.68 57.4 17.42C57.4 17.0533 57.3 16.7533 57.1 16.52C56.9 16.2867 56.5967 16.17 56.19 16.17C55.9233 16.17 55.6767 16.2467 55.45 16.4C55.2233 16.5467 55.0167 16.7267 54.83 16.94L54.36 16.47C54.6267 16.1767 54.91 15.9433 55.21 15.77C55.51 15.59 55.87 15.5 56.29 15.5C56.8833 15.5 57.35 15.6733 57.69 16.02C58.03 16.36 58.2 16.8133 58.2 17.38C58.2 17.68 58.1333 17.9833 58 18.29C57.8733 18.59 57.6933 18.9033 57.46 19.23C57.2333 19.55 56.96 19.8867 56.64 20.24C56.3267 20.5867 55.98 20.9567 55.6 21.35C55.7733 21.3367 55.9533 21.3233 56.14 21.31C56.3267 21.2967 56.5033 21.29 56.67 21.29H58.52V22H54.4Z" fill="#FAF2ED"/>
<path d="M111.43 22.12C110.91 22.12 110.47 22.04 110.11 21.88C109.75 21.7133 109.453 21.4933 109.22 21.22L109.9 20.29C110.093 20.4767 110.303 20.63 110.53 20.75C110.763 20.87 111.017 20.93 111.29 20.93C111.603 20.93 111.853 20.8667 112.04 20.74C112.227 20.6067 112.32 20.42 112.32 20.18C112.32 20.04 112.293 19.9133 112.24 19.8C112.193 19.6867 112.107 19.5933 111.98 19.52C111.853 19.44 111.68 19.38 111.46 19.34C111.24 19.2933 110.957 19.27 110.61 19.27V18.23C110.897 18.23 111.133 18.21 111.32 18.17C111.513 18.13 111.667 18.0733 111.78 18C111.9 17.92 111.983 17.83 112.03 17.73C112.083 17.6233 112.11 17.5067 112.11 17.38C112.11 17.16 112.043 16.99 111.91 16.87C111.777 16.7433 111.583 16.68 111.33 16.68C111.103 16.68 110.897 16.73 110.71 16.83C110.53 16.93 110.34 17.0667 110.14 17.24L109.4 16.34C109.693 16.0867 110 15.89 110.32 15.75C110.647 15.6033 111.007 15.53 111.4 15.53C111.727 15.53 112.023 15.57 112.29 15.65C112.563 15.7233 112.793 15.8367 112.98 15.99C113.173 16.1367 113.323 16.3167 113.43 16.53C113.537 16.7433 113.59 16.99 113.59 17.27C113.59 17.6033 113.497 17.8867 113.31 18.12C113.13 18.3467 112.87 18.5333 112.53 18.68V18.72C112.897 18.8267 113.197 19.01 113.43 19.27C113.67 19.5233 113.79 19.8567 113.79 20.27C113.79 20.5633 113.727 20.8267 113.6 21.06C113.473 21.2867 113.303 21.48 113.09 21.64C112.877 21.7933 112.627 21.9133 112.34 22C112.053 22.08 111.75 22.12 111.43 22.12Z" fill="#FAF2ED"/>
<path d="M167.04 22V20.24H164.17V19.7L166.9 15.62H167.82V19.58H168.69V20.24H167.82V22H167.04ZM165.04 19.58H167.04V17.73C167.04 17.5567 167.043 17.3533 167.05 17.12C167.063 16.88 167.077 16.6733 167.09 16.5H167.05C166.97 16.6533 166.887 16.8033 166.8 16.95C166.713 17.0967 166.623 17.2467 166.53 17.4L165.04 19.58Z" fill="#FAF2ED"/>
<path d="M2 5L225 5.00002" stroke="#757271" stroke-linecap="round"/>
<path d="M2 5L121 5.00001" stroke="#FAF2ED" stroke-linecap="round"/>
<circle cx="112" cy="5" r="4.5" stroke="#FAF2ED"/>
<circle cx="57" cy="5" r="2" fill="#FAF2ED"/>
<circle cx="112" cy="5" r="2" fill="#FAF2ED"/>
<circle cx="167" cy="5" r="2" fill="#757271"/>
<circle cx="225" cy="5" r="2" fill="#757271"/>
<circle cx="2" cy="5" r="2" fill="#FAF2ED"/>
</svg>
