<svg fill="none" height="34" viewBox="0 0 46 34" width="46" xmlns="http://www.w3.org/2000/svg"><path d="m4 0h42v34h-42z" fill="#0e0d22"/><path d="m20.426 24.2642c0 .276-.048.534-.144.774-.108.24-.258.456-.45.648-.192.18-.42.324-.684.432s-.558.162-.882.162-.618-.054-.882-.162c-.276-.108-.504-.252-.684-.432-.192-.192-.342-.408-.45-.648s-.162-.498-.162-.774c0-.264.054-.516.162-.756.108-.252.258-.468.45-.648.18-.192.408-.342.684-.45.264-.108.558-.162.882-.162s.618.054.882.162.492.258.684.45c.192.18.342.396.45.648.096.24.144.492.144.756zm0-7.2668c0 .276-.048.534-.144.774-.108.24-.258.456-.45.648-.192.18-.42.324-.684.432s-.558.162-.882.162-.618-.054-.882-.162c-.276-.108-.504-.252-.684-.432-.192-.192-.342-.408-.45-.648s-.162-.498-.162-.774c0-.264.054-.516.162-.756.108-.252.258-.468.45-.648.18-.192.408-.342.684-.45.264-.108.558-.162.882-.162s.618.054.882.162.492.258.684.45c.192.18.342.396.45.648.096.24.144.492.144.756zm0-7.2668c0 .276-.048.534-.144.774-.108.24-.258.456-.45.648-.192.18-.42.324-.684.432s-.558.162-.882.162-.618-.054-.882-.162c-.276-.108-.504-.252-.684-.432-.192-.192-.342-.408-.45-.648s-.162-.498-.162-.774c0-.264.054-.516.162-.756.108-.252.258-.468.45-.648.18-.192.408-.342.684-.45.264-.108.558-.162.882-.162s.618.054.882.162.492.258.684.45c.192.18.342.396.45.648.096.24.144.492.144.756z" fill="#faf2ed"/></svg>