<svg width="21" height="22" viewBox="0 0 21 22" fill="none" xmlns="http://www.w3.org/2000/svg">
<path fill-rule="evenodd" clip-rule="evenodd" d="M6.14853 0.24734C7.26411 0.195983 7.6198 0.18457 10.4615 0.18457C13.3033 0.18457 13.659 0.196934 14.7736 0.24734C15.8882 0.297745 16.6491 0.475591 17.3148 0.733326C18.0119 0.996766 18.6444 1.40857 19.1674 1.94116C19.7 2.46328 20.1109 3.09478 20.3734 3.79285C20.6321 4.45858 20.809 5.21942 20.8603 6.33215C20.9117 7.44963 20.9231 7.80533 20.9231 10.6461C20.9231 13.4878 20.9107 13.8435 20.8603 14.9591C20.8099 16.0718 20.6321 16.8327 20.3734 17.4984C20.1109 18.1966 19.6993 18.8291 19.1674 19.352C18.6444 19.8846 18.0119 20.2955 17.3148 20.5579C16.6491 20.8166 15.8882 20.9935 14.7755 21.0449C13.659 21.0962 13.3033 21.1076 10.4615 21.1076C7.6198 21.1076 7.26411 21.0953 6.14853 21.0449C5.0358 20.9945 4.27496 20.8166 3.60923 20.5579C2.91109 20.2954 2.27854 19.8839 1.75564 19.352C1.22341 18.8296 0.811544 18.1973 0.548755 17.4994C0.291021 16.8336 0.114126 16.0728 0.0627692 14.9601C0.0114126 13.8426 0 13.4869 0 10.6461C0 7.80437 0.0123636 7.44868 0.0627692 6.33405C0.113175 5.21942 0.291021 4.45858 0.548755 3.79285C0.811932 3.09486 1.22411 2.46263 1.75659 1.94021C2.27875 1.4081 2.91066 0.996237 3.60828 0.733326C4.27401 0.475591 5.0358 0.298696 6.14853 0.24734ZM14.689 2.13042C13.5857 2.08001 13.2548 2.06955 10.4615 2.06955C7.66831 2.06955 7.33734 2.08001 6.23413 2.13042C5.21365 2.17702 4.66014 2.34726 4.29113 2.49086C3.80324 2.68107 3.45421 2.90647 3.08806 3.27263C2.74097 3.6103 2.47385 4.02137 2.30629 4.4757C2.16269 4.84471 1.99245 5.39822 1.94585 6.4187C1.89544 7.52191 1.88498 7.85288 1.88498 10.6461C1.88498 13.4393 1.89544 13.7703 1.94585 14.8735C1.99245 15.894 2.16269 16.4475 2.30629 16.8165C2.47368 17.2702 2.74092 17.682 3.08806 18.0196C3.42568 18.3667 3.83748 18.634 4.29113 18.8014C4.66014 18.945 5.21365 19.1152 6.23413 19.1618C7.33734 19.2122 7.66736 19.2227 10.4615 19.2227C13.2557 19.2227 13.5857 19.2122 14.689 19.1618C15.7094 19.1152 16.2629 18.945 16.6319 18.8014C17.1198 18.6111 17.4689 18.3857 17.835 18.0196C18.1822 17.682 18.4494 17.2702 18.6168 16.8165C18.7604 16.4475 18.9306 15.894 18.9772 14.8735C19.0276 13.7703 19.0381 13.4393 19.0381 10.6461C19.0381 7.85288 19.0276 7.52191 18.9772 6.4187C18.9306 5.39822 18.7604 4.84471 18.6168 4.4757C18.4266 3.98782 18.2012 3.63878 17.835 3.27263C17.4973 2.92556 17.0863 2.65845 16.6319 2.49086C16.2629 2.34726 15.7094 2.17702 14.689 2.13042ZM9.12531 13.8711C9.87156 14.1818 10.7025 14.2237 11.4762 13.9897C12.25 13.7558 12.9185 13.2605 13.3676 12.5884C13.8167 11.9163 14.0185 11.1091 13.9386 10.3048C13.8587 9.50042 13.502 8.74874 12.9295 8.17814C12.5645 7.81339 12.1232 7.5341 11.6374 7.36037C11.1515 7.18665 10.6331 7.12282 10.1196 7.17346C9.60613 7.22411 9.11024 7.38798 8.66767 7.65328C8.2251 7.91858 7.84686 8.2787 7.56018 8.70773C7.27349 9.13675 7.08549 9.62401 7.00972 10.1344C6.93395 10.6448 6.97228 11.1657 7.12197 11.6595C7.27165 12.1533 7.52896 12.6078 7.87537 12.9902C8.22178 13.3726 8.64867 13.6735 9.12531 13.8711ZM6.65924 6.84381C7.15857 6.34449 7.75135 5.9484 8.40375 5.67817C9.05615 5.40794 9.75539 5.26885 10.4615 5.26885C11.1677 5.26885 11.8669 5.40794 12.5193 5.67817C13.1717 5.9484 13.7645 6.34449 14.2638 6.84381C14.7632 7.34314 15.1592 7.93592 15.4295 8.58832C15.6997 9.24072 15.8388 9.93996 15.8388 10.6461C15.8388 11.3523 15.6997 12.0515 15.4295 12.7039C15.1592 13.3563 14.7632 13.9491 14.2638 14.4484C13.2554 15.4568 11.8877 16.0234 10.4615 16.0234C9.0354 16.0234 7.66768 15.4568 6.65924 14.4484C5.65081 13.44 5.08428 12.0722 5.08428 10.6461C5.08428 9.21997 5.65081 7.85225 6.65924 6.84381ZM17.0314 6.06966C17.1551 5.95294 17.2542 5.81257 17.3227 5.65688C17.3912 5.50119 17.4278 5.33333 17.4303 5.16324C17.4328 4.99316 17.4011 4.82431 17.3371 4.66668C17.2732 4.50906 17.1783 4.36587 17.058 4.24559C16.9377 4.12531 16.7945 4.03038 16.6369 3.96643C16.4793 3.90248 16.3104 3.87081 16.1403 3.87329C15.9702 3.87577 15.8024 3.91235 15.6467 3.98087C15.491 4.04938 15.3506 4.14844 15.2339 4.27218C15.0069 4.51282 14.8826 4.83246 14.8874 5.16324C14.8923 5.49403 15.0258 5.80991 15.2597 6.04383C15.4937 6.27776 15.8095 6.4113 16.1403 6.41613C16.4711 6.42095 16.7907 6.29667 17.0314 6.06966Z" fill="#B68EFB"/>
</svg>
