<svg width="21" height="22" viewBox="0 0 21 22" fill="none" xmlns="http://www.w3.org/2000/svg">
<path d="M18.75 0.18457H2.25C1.65326 0.18457 1.08097 0.421623 0.65901 0.84358C0.237053 1.26554 0 1.83783 0 2.43457V18.9346C0 19.5313 0.237053 20.1036 0.65901 20.5256C1.08097 20.9475 1.65326 21.1846 2.25 21.1846H8.68359V14.045H5.73047V10.6846H8.68359V8.12332C8.68359 5.21004 10.418 3.60082 13.0744 3.60082C14.3466 3.60082 15.6769 3.8277 15.6769 3.8277V6.68707H14.2111C12.7669 6.68707 12.3164 7.58332 12.3164 8.50254V10.6846H15.5405L15.0248 14.045H12.3164V21.1846H18.75C19.3467 21.1846 19.919 20.9475 20.341 20.5256C20.7629 20.1036 21 19.5313 21 18.9346V2.43457C21 1.83783 20.7629 1.26554 20.341 0.84358C19.919 0.421623 19.3467 0.18457 18.75 0.18457Z" fill="#B68EFB"/>
</svg>
