<svg width="21" height="22" viewBox="0 0 21 22" fill="none" xmlns="http://www.w3.org/2000/svg">
<path fill-rule="evenodd" clip-rule="evenodd" d="M6.14853 0.246363C7.26411 0.195006 7.6198 0.183594 10.4615 0.183594C13.3033 0.183594 13.659 0.195957 14.7736 0.246363C15.8882 0.296769 16.6491 0.474615 17.3148 0.732349C18.0119 0.99579 18.6444 1.40759 19.1674 1.94018C19.7 2.46231 20.1109 3.0938 20.3734 3.79187C20.6321 4.45761 20.809 5.21845 20.8603 6.33117C20.9117 7.44866 20.9231 7.80435 20.9231 10.6451C20.9231 13.4869 20.9107 13.8426 20.8603 14.9581C20.8099 16.0709 20.6321 16.8317 20.3734 17.4974C20.1109 18.1956 19.6993 18.8281 19.1674 19.351C18.6444 19.8836 18.0119 20.2945 17.3148 20.557C16.6491 20.8157 15.8882 20.9925 14.7755 21.0439C13.659 21.0953 13.3033 21.1067 10.4615 21.1067C7.6198 21.1067 7.26411 21.0943 6.14853 21.0439C5.0358 20.9935 4.27496 20.8157 3.60923 20.557C2.91109 20.2944 2.27854 19.8829 1.75564 19.351C1.22341 18.8286 0.811544 18.1964 0.548755 17.4984C0.291021 16.8327 0.114126 16.0718 0.0627692 14.9591C0.0114126 13.8416 0 13.4859 0 10.6451C0 7.8034 0.0123636 7.44771 0.0627692 6.33308C0.113175 5.21845 0.291021 4.45761 0.548755 3.79187C0.811932 3.09388 1.22411 2.46165 1.75659 1.93923C2.27875 1.40712 2.91066 0.99526 3.60828 0.732349C4.27401 0.474615 5.0358 0.29772 6.14853 0.246363ZM14.689 2.12944C13.5857 2.07903 13.2548 2.06857 10.4615 2.06857C7.66831 2.06857 7.33734 2.07903 6.23413 2.12944C5.21365 2.17604 4.66014 2.34628 4.29113 2.48989C3.80324 2.6801 3.45421 2.9055 3.08806 3.27165C2.74097 3.60932 2.47385 4.02039 2.30629 4.47473C2.16269 4.84373 1.99245 5.39724 1.94585 6.41772C1.89544 7.52094 1.88498 7.8519 1.88498 10.6451C1.88498 13.4384 1.89544 13.7693 1.94585 14.8725C1.99245 15.893 2.16269 16.4465 2.30629 16.8155C2.47368 17.2692 2.74092 17.681 3.08806 18.0186C3.42568 18.3657 3.83748 18.633 4.29113 18.8004C4.66014 18.944 5.21365 19.1142 6.23413 19.1608C7.33734 19.2112 7.66736 19.2217 10.4615 19.2217C13.2557 19.2217 13.5857 19.2112 14.689 19.1608C15.7094 19.1142 16.2629 18.944 16.6319 18.8004C17.1198 18.6102 17.4689 18.3848 17.835 18.0186C18.1822 17.681 18.4494 17.2692 18.6168 16.8155C18.7604 16.4465 18.9306 15.893 18.9772 14.8725C19.0276 13.7693 19.0381 13.4384 19.0381 10.6451C19.0381 7.8519 19.0276 7.52094 18.9772 6.41772C18.9306 5.39724 18.7604 4.84373 18.6168 4.47473C18.4266 3.98684 18.2012 3.6378 17.835 3.27165C17.4973 2.92458 17.0863 2.65747 16.6319 2.48989C16.2629 2.34628 15.7094 2.17604 14.689 2.12944ZM9.12531 13.8701C9.87156 14.1808 10.7025 14.2227 11.4762 13.9888C12.25 13.7548 12.9185 13.2595 13.3676 12.5874C13.8167 11.9153 14.0185 11.1082 13.9386 10.3038C13.8587 9.49944 13.502 8.74776 12.9295 8.17716C12.5645 7.81241 12.1232 7.53312 11.6374 7.3594C11.1515 7.18567 10.6331 7.12184 10.1196 7.17249C9.60613 7.22314 9.11024 7.38701 8.66767 7.6523C8.2251 7.9176 7.84686 8.27773 7.56018 8.70675C7.27349 9.13578 7.08549 9.62303 7.00972 10.1334C6.93395 10.6438 6.97228 11.1647 7.12197 11.6585C7.27165 12.1523 7.52896 12.6068 7.87537 12.9892C8.22178 13.3716 8.64867 13.6725 9.12531 13.8701ZM6.65924 6.84284C7.15857 6.34351 7.75135 5.94743 8.40375 5.6772C9.05615 5.40696 9.75539 5.26788 10.4615 5.26788C11.1677 5.26788 11.8669 5.40696 12.5193 5.6772C13.1717 5.94743 13.7645 6.34351 14.2638 6.84284C14.7632 7.34216 15.1592 7.93495 15.4295 8.58735C15.6997 9.23974 15.8388 9.93898 15.8388 10.6451C15.8388 11.3513 15.6997 12.0505 15.4295 12.7029C15.1592 13.3553 14.7632 13.9481 14.2638 14.4474C13.2554 15.4559 11.8877 16.0224 10.4615 16.0224C9.0354 16.0224 7.66768 15.4559 6.65924 14.4474C5.65081 13.439 5.08428 12.0713 5.08428 10.6451C5.08428 9.219 5.65081 7.85127 6.65924 6.84284ZM17.0314 6.06868C17.1551 5.95196 17.2542 5.8116 17.3227 5.6559C17.3912 5.50021 17.4278 5.33235 17.4303 5.16227C17.4328 4.99218 17.4011 4.82333 17.3371 4.66571C17.2732 4.50808 17.1783 4.36489 17.058 4.24461C16.9377 4.12433 16.7945 4.0294 16.6369 3.96546C16.4793 3.90151 16.3104 3.86984 16.1403 3.87232C15.9702 3.8748 15.8024 3.91138 15.6467 3.97989C15.491 4.04841 15.3506 4.14747 15.2339 4.2712C15.0069 4.51185 14.8826 4.83149 14.8874 5.16227C14.8923 5.49305 15.0258 5.80893 15.2597 6.04286C15.4937 6.27678 15.8095 6.41033 16.1403 6.41515C16.4711 6.41997 16.7907 6.29569 17.0314 6.06868Z" fill="#B68EFB"/>
</svg>
