<svg width="55" height="55" viewBox="0 0 55 55" fill="none" xmlns="http://www.w3.org/2000/svg">
<path fill-rule="evenodd" clip-rule="evenodd" d="M48.8027 27.2358C48.8027 38.8338 39.4007 48.2358 27.8027 48.2358C16.2048 48.2358 6.80273 38.8338 6.80273 27.2358C6.80273 15.6379 16.2048 6.23584 27.8027 6.23584C39.4007 6.23584 48.8027 15.6379 48.8027 27.2358ZM26.3267 34.1158V28.2658H20.8667V26.4058H26.3267V20.5558H28.2767V26.4058H33.7367V28.2658H28.2767V34.1158H26.3267Z" fill="white"/>
<path fill-rule="evenodd" clip-rule="evenodd" d="M54.8027 27.2358C54.8027 42.1475 42.7144 54.2358 27.8027 54.2358C12.891 54.2358 0.802734 42.1475 0.802734 27.2358C0.802734 12.3242 12.891 0.23584 27.8027 0.23584C42.7144 0.23584 54.8027 12.3242 54.8027 27.2358ZM52.8027 27.2358C52.8027 41.043 41.6099 52.2358 27.8027 52.2358C13.9956 52.2358 2.80273 41.043 2.80273 27.2358C2.80273 13.4287 13.9956 2.23584 27.8027 2.23584C41.6099 2.23584 52.8027 13.4287 52.8027 27.2358Z" fill="white"/>
</svg>
