<svg width="21" height="22" viewBox="0 0 21 22" fill="none" xmlns="http://www.w3.org/2000/svg">
<path d="M18.75 0.184082H2.25C1.65326 0.184082 1.08097 0.421135 0.65901 0.843092C0.237053 1.26505 0 1.83734 0 2.43408V18.9341C0 19.5308 0.237053 20.1031 0.65901 20.5251C1.08097 20.947 1.65326 21.1841 2.25 21.1841H8.68359V14.0446H5.73047V10.6841H8.68359V8.12283C8.68359 5.20955 10.418 3.60033 13.0744 3.60033C14.3466 3.60033 15.6769 3.82721 15.6769 3.82721V6.68658H14.2111C12.7669 6.68658 12.3164 7.58283 12.3164 8.50205V10.6841H15.5405L15.0248 14.0446H12.3164V21.1841H18.75C19.3467 21.1841 19.919 20.947 20.341 20.5251C20.7629 20.1031 21 19.5308 21 18.9341V2.43408C21 1.83734 20.7629 1.26505 20.341 0.843092C19.919 0.421135 19.3467 0.184082 18.75 0.184082Z" fill="#B68EFB"/>
</svg>
