<svg width="21" height="22" viewBox="0 0 21 22" fill="none" xmlns="http://www.w3.org/2000/svg">
<path d="M18.75 0.18457H2.25C1.00781 0.18457 0 1.19238 0 2.43457V18.9346C0 20.1768 1.00781 21.1846 2.25 21.1846H18.75C19.9922 21.1846 21 20.1768 21 18.9346V2.43457C21 1.19238 19.9922 0.18457 18.75 0.18457ZM16.4578 7.62832C16.4672 7.75957 16.4672 7.89551 16.4672 8.02676C16.4672 12.0908 13.3734 16.7736 7.72031 16.7736C5.97656 16.7736 4.35938 16.2674 3 15.3955C3.24844 15.4236 3.4875 15.433 3.74063 15.433C5.17969 15.433 6.50156 14.9455 7.55625 14.1205C6.20625 14.0924 5.07188 13.2064 4.68281 11.9877C5.15625 12.058 5.58281 12.058 6.07031 11.9314C4.66406 11.6455 3.60938 10.408 3.60938 8.91269V8.87519C4.01719 9.10488 4.49531 9.24551 4.99687 9.26426C4.5752 8.98377 4.22952 8.60326 3.99069 8.15667C3.75186 7.71009 3.6273 7.21132 3.62813 6.70488C3.62813 6.13301 3.77813 5.60801 4.04531 5.15332C5.55938 7.01895 7.83281 8.2377 10.3828 8.36895C9.94687 6.28301 11.5078 4.59082 13.3828 4.59082C14.2688 4.59082 15.0656 4.96113 15.6281 5.56113C16.3219 5.42988 16.9875 5.17207 17.5781 4.82051C17.3484 5.53301 16.8656 6.13301 16.2281 6.5127C16.8469 6.44707 17.4469 6.27363 18 6.03457C17.5828 6.64863 17.0578 7.19238 16.4578 7.62832Z" fill="#B68EFB"/>
</svg>
