<svg width="21" height="22" viewBox="0 0 21 22" fill="none" xmlns="http://www.w3.org/2000/svg">
<path d="M18.75 0.183594H2.25C1.00781 0.183594 0 1.19141 0 2.43359V18.9336C0 20.1758 1.00781 21.1836 2.25 21.1836H18.75C19.9922 21.1836 21 20.1758 21 18.9336V2.43359C21 1.19141 19.9922 0.183594 18.75 0.183594ZM16.4578 7.62734C16.4672 7.75859 16.4672 7.89453 16.4672 8.02578C16.4672 12.0898 13.3734 16.7727 7.72031 16.7727C5.97656 16.7727 4.35938 16.2664 3 15.3945C3.24844 15.4227 3.4875 15.432 3.74063 15.432C5.17969 15.432 6.50156 14.9445 7.55625 14.1195C6.20625 14.0914 5.07188 13.2055 4.68281 11.9867C5.15625 12.057 5.58281 12.057 6.07031 11.9305C4.66406 11.6445 3.60938 10.407 3.60938 8.91172V8.87422C4.01719 9.10391 4.49531 9.24453 4.99687 9.26328C4.5752 8.9828 4.22952 8.60228 3.99069 8.1557C3.75186 7.70911 3.6273 7.21034 3.62813 6.70391C3.62813 6.13203 3.77813 5.60703 4.04531 5.15234C5.55938 7.01797 7.83281 8.23672 10.3828 8.36797C9.94687 6.28203 11.5078 4.58984 13.3828 4.58984C14.2687 4.58984 15.0656 4.96016 15.6281 5.56016C16.3219 5.42891 16.9875 5.17109 17.5781 4.81953C17.3484 5.53203 16.8656 6.13203 16.2281 6.51172C16.8469 6.44609 17.4469 6.27266 18 6.03359C17.5828 6.64766 17.0578 7.19141 16.4578 7.62734Z" fill="#B68EFB"/>
</svg>
