<svg width="22" height="21" viewBox="0 0 22 21" fill="none" xmlns="http://www.w3.org/2000/svg">
<path d="M18.8672 0H2.36042C1.11772 0 0.109497 1.00781 0.109497 2.25V18.75C0.109497 19.9922 1.11772 21 2.36042 21H18.8672C20.1098 21 21.1181 19.9922 21.1181 18.75V2.25C21.1181 1.00781 20.1098 0 18.8672 0ZM16.574 7.44375C16.5834 7.575 16.5834 7.71094 16.5834 7.84219C16.5834 11.9062 13.4884 16.5891 7.83296 16.5891C6.0885 16.5891 4.47065 16.0828 3.11072 15.2109C3.35926 15.2391 3.59842 15.2484 3.85165 15.2484C5.2913 15.2484 6.61371 14.7609 7.66883 13.9359C6.31828 13.9078 5.18344 13.0219 4.79422 11.8031C5.26785 11.8734 5.69459 11.8734 6.18229 11.7469C4.77546 11.4609 3.72035 10.2234 3.72035 8.72812V8.69062C4.12833 8.92031 4.60665 9.06094 5.10841 9.07969C4.68657 8.7992 4.34075 8.41869 4.10182 7.9721C3.86289 7.52552 3.73827 7.02675 3.7391 6.52031C3.7391 5.94844 3.88917 5.42344 4.15646 4.96875C5.67114 6.83437 7.94551 8.05313 10.4966 8.18438C10.0604 6.09844 11.622 4.40625 13.4978 4.40625C14.3841 4.40625 15.1813 4.77656 15.744 5.37656C16.438 5.24531 17.1039 4.9875 17.6948 4.63594C17.465 5.34844 16.982 5.94844 16.3443 6.32812C16.9633 6.2625 17.5635 6.08906 18.1168 5.85C17.6995 6.46406 17.1743 7.00781 16.574 7.44375Z" fill="#B68EFB"/>
</svg>
