<svg width="21" height="22" viewBox="0 0 21 22" fill="none" xmlns="http://www.w3.org/2000/svg">
<path d="M18.75 0.184082H2.25C1.00781 0.184082 0 1.19189 0 2.43408V18.9341C0 20.1763 1.00781 21.1841 2.25 21.1841H18.75C19.9922 21.1841 21 20.1763 21 18.9341V2.43408C21 1.19189 19.9922 0.184082 18.75 0.184082ZM16.4578 7.62783C16.4672 7.75908 16.4672 7.89502 16.4672 8.02627C16.4672 12.0903 13.3734 16.7731 7.72031 16.7731C5.97656 16.7731 4.35938 16.2669 3 15.395C3.24844 15.4231 3.4875 15.4325 3.74063 15.4325C5.17969 15.4325 6.50156 14.945 7.55625 14.12C6.20625 14.0919 5.07188 13.206 4.68281 11.9872C5.15625 12.0575 5.58281 12.0575 6.07031 11.931C4.66406 11.645 3.60938 10.4075 3.60938 8.91221V8.87471C4.01719 9.10439 4.49531 9.24502 4.99687 9.26377C4.5752 8.98328 4.22952 8.60277 3.99069 8.15619C3.75186 7.7096 3.6273 7.21083 3.62813 6.70439C3.62813 6.13252 3.77813 5.60752 4.04531 5.15283C5.55938 7.01846 7.83281 8.23721 10.3828 8.36846C9.94687 6.28252 11.5078 4.59033 13.3828 4.59033C14.2687 4.59033 15.0656 4.96064 15.6281 5.56064C16.3219 5.42939 16.9875 5.17158 17.5781 4.82002C17.3484 5.53252 16.8656 6.13252 16.2281 6.51221C16.8469 6.44658 17.4469 6.27314 18 6.03408C17.5828 6.64814 17.0578 7.19189 16.4578 7.62783Z" fill="#B68EFB"/>
</svg>
