<svg width="50" height="16" viewBox="0 0 50 16" fill="none" xmlns="http://www.w3.org/2000/svg">
<path d="M48.0546 7.10349C37.3112 7.54385 13.2668 9.90272 2.62483 10.3389C1.94178 10.3669 1.55722 10.4213 1.41716 10.4977M1.41716 10.4977C1.03431 10.7066 2.47829 11.0797 4.64633 11.5269M1.41716 10.4977C1.42875 10.5208 1.44996 10.5385 1.48148 10.5504C2.53355 10.9477 3.58671 11.2619 4.64633 11.5269M1.41716 10.4977C1.14227 9.95029 6.28409 6.37829 7.84415 5.46401C8.49299 5.08376 10.4054 3.7203 14.4223 1.36621M4.64633 11.5269C8.25573 12.2715 13.872 13.2214 16.4067 13.9605C19.5353 14.8727 14.903 13.5746 12.7401 13.1063C9.9469 12.5388 7.27661 12.1846 4.64633 11.5269Z" stroke="#0F0E21" stroke-width="2" stroke-linecap="round" stroke-linejoin="round"/>
</svg>
