<svg width="21" height="22" viewBox="0 0 21 22" fill="none" xmlns="http://www.w3.org/2000/svg">
<path d="M18.75 0.640625H2.25C1.65326 0.640625 1.08097 0.877678 0.65901 1.29963C0.237053 1.72159 0 2.29389 0 2.89062V19.3906C0 19.9874 0.237053 20.5597 0.65901 20.9816C1.08097 21.4036 1.65326 21.6406 2.25 21.6406H8.68359V14.5011H5.73047V11.1406H8.68359V8.57938C8.68359 5.66609 10.418 4.05687 13.0744 4.05687C14.3466 4.05687 15.6769 4.28375 15.6769 4.28375V7.14313H14.2111C12.7669 7.14313 12.3164 8.03937 12.3164 8.95859V11.1406H15.5405L15.0248 14.5011H12.3164V21.6406H18.75C19.3467 21.6406 19.919 21.4036 20.341 20.9816C20.7629 20.5597 21 19.9874 21 19.3906V2.89062C21 2.29389 20.7629 1.72159 20.341 1.29963C19.919 0.877678 19.3467 0.640625 18.75 0.640625Z" fill="#B68EFB"/>
</svg>
