<svg width="50" height="16" viewBox="0 0 50 16" fill="none" xmlns="http://www.w3.org/2000/svg">
<path d="M1.74176 3.88289C12.4354 5.00558 36.5677 6.15946 47.1604 7.27156C47.8403 7.34294 48.2286 7.34489 48.3783 7.28962M48.3783 7.28962C48.7874 7.13854 47.4128 6.55989 45.3326 5.8029M48.3783 7.28962C48.3702 7.2651 48.3518 7.24449 48.3223 7.22815C47.339 6.68246 46.3426 6.21877 45.3326 5.8029M48.3783 7.28962C48.5709 7.87114 42.9653 10.6595 41.2891 11.3378C40.592 11.6199 38.502 12.6916 34.1862 14.4381M45.3326 5.8029C41.8693 4.54264 36.4503 2.78807 34.0496 1.68912C31.0864 0.332732 35.4814 2.2891 37.5535 3.06619C40.2349 4.03279 42.8255 4.77059 45.3326 5.8029Z" stroke="#0F0E21" stroke-width="2" stroke-linecap="round" stroke-linejoin="round"/>
</svg>
