<svg width="55" height="55" viewBox="0 0 55 55" fill="none" xmlns="http://www.w3.org/2000/svg">
<path fill-rule="evenodd" clip-rule="evenodd" d="M48.8027 27.3589C48.8027 38.9569 39.4007 48.3589 27.8027 48.3589C16.2048 48.3589 6.80273 38.9569 6.80273 27.3589C6.80273 15.7609 16.2048 6.35889 27.8027 6.35889C39.4007 6.35889 48.8027 15.7609 48.8027 27.3589ZM26.3267 34.2389V28.3889H20.8667V26.5289H26.3267V20.6789H28.2767V26.5289H33.7367V28.3889H28.2767V34.2389H26.3267Z" fill="white"/>
<path fill-rule="evenodd" clip-rule="evenodd" d="M54.8027 27.3589C54.8027 42.2706 42.7144 54.3589 27.8027 54.3589C12.891 54.3589 0.802734 42.2706 0.802734 27.3589C0.802734 12.4472 12.891 0.358887 27.8027 0.358887C42.7144 0.358887 54.8027 12.4472 54.8027 27.3589ZM52.8027 27.3589C52.8027 41.166 41.6099 52.3589 27.8027 52.3589C13.9956 52.3589 2.80273 41.166 2.80273 27.3589C2.80273 13.5518 13.9956 2.35889 27.8027 2.35889C41.6099 2.35889 52.8027 13.5518 52.8027 27.3589Z" fill="white"/>
</svg>
