<svg width="21" height="22" viewBox="0 0 21 22" fill="none" xmlns="http://www.w3.org/2000/svg">
<path d="M18.75 0.640625H2.25C1.00781 0.640625 0 1.64844 0 2.89062V19.3906C0 20.6328 1.00781 21.6406 2.25 21.6406H18.75C19.9922 21.6406 21 20.6328 21 19.3906V2.89062C21 1.64844 19.9922 0.640625 18.75 0.640625ZM16.4578 8.08438C16.4672 8.21563 16.4672 8.35156 16.4672 8.48281C16.4672 12.5469 13.3734 17.2297 7.72031 17.2297C5.97656 17.2297 4.35938 16.7234 3 15.8516C3.24844 15.8797 3.4875 15.8891 3.74063 15.8891C5.17969 15.8891 6.50156 15.4016 7.55625 14.5766C6.20625 14.5484 5.07188 13.6625 4.68281 12.4437C5.15625 12.5141 5.58281 12.5141 6.07031 12.3875C4.66406 12.1016 3.60938 10.8641 3.60938 9.36875V9.33125C4.01719 9.56094 4.49531 9.70156 4.99687 9.72031C4.5752 9.43983 4.22952 9.05931 3.99069 8.61273C3.75186 8.16614 3.6273 7.66738 3.62813 7.16094C3.62812 6.58906 3.77813 6.06406 4.04531 5.60938C5.55938 7.475 7.83281 8.69375 10.3828 8.825C9.94687 6.73906 11.5078 5.04688 13.3828 5.04688C14.2688 5.04688 15.0656 5.41719 15.6281 6.01719C16.3219 5.88594 16.9875 5.62812 17.5781 5.27656C17.3484 5.98906 16.8656 6.58906 16.2281 6.96875C16.8469 6.90312 17.4469 6.72969 18 6.49063C17.5828 7.10469 17.0578 7.64844 16.4578 8.08438Z" fill="#B68EFB"/>
</svg>
