<svg width="21" height="22" viewBox="0 0 21 22" fill="none" xmlns="http://www.w3.org/2000/svg">
<path fill-rule="evenodd" clip-rule="evenodd" d="M6.14853 0.246851C7.26411 0.195495 7.6198 0.184082 10.4615 0.184082C13.3033 0.184082 13.659 0.196446 14.7736 0.246851C15.8882 0.297257 16.6491 0.475103 17.3148 0.732837C18.0119 0.996278 18.6444 1.40808 19.1674 1.94067C19.7 2.4628 20.1109 3.09429 20.3734 3.79236C20.6321 4.4581 20.809 5.21894 20.8603 6.33166C20.9117 7.44914 20.9231 7.80484 20.9231 10.6456C20.9231 13.4874 20.9107 13.843 20.8603 14.9586C20.8099 16.0714 20.6321 16.8322 20.3734 17.4979C20.1109 18.1961 19.6993 18.8286 19.1674 19.3515C18.6444 19.8841 18.0119 20.295 17.3148 20.5575C16.6491 20.8161 15.8882 20.993 14.7755 21.0444C13.659 21.0957 13.3033 21.1072 10.4615 21.1072C7.6198 21.1072 7.26411 21.0948 6.14853 21.0444C5.0358 20.994 4.27496 20.8161 3.60923 20.5575C2.91109 20.2949 2.27854 19.8834 1.75564 19.3515C1.22341 18.8291 0.811544 18.1968 0.548755 17.4989C0.291021 16.8331 0.114126 16.0723 0.0627692 14.9596C0.0114126 13.8421 0 13.4864 0 10.6456C0 7.80389 0.0123636 7.44819 0.0627692 6.33356C0.113175 5.21894 0.291021 4.4581 0.548755 3.79236C0.811932 3.09437 1.22411 2.46214 1.75659 1.93972C2.27875 1.40761 2.91066 0.995748 3.60828 0.732837C4.27401 0.475103 5.0358 0.298208 6.14853 0.246851ZM14.689 2.12993C13.5857 2.07952 13.2548 2.06906 10.4615 2.06906C7.66831 2.06906 7.33734 2.07952 6.23413 2.12993C5.21365 2.17653 4.66014 2.34677 4.29113 2.49038C3.80324 2.68059 3.45421 2.90598 3.08806 3.27214C2.74097 3.60981 2.47385 4.02088 2.30629 4.47521C2.16269 4.84422 1.99245 5.39773 1.94585 6.41821C1.89544 7.52142 1.88498 7.85239 1.88498 10.6456C1.88498 13.4389 1.89544 13.7698 1.94585 14.873C1.99245 15.8935 2.16269 16.447 2.30629 16.816C2.47368 17.2697 2.74092 17.6815 3.08806 18.0191C3.42568 18.3662 3.83748 18.6335 4.29113 18.8009C4.66014 18.9445 5.21365 19.1147 6.23413 19.1613C7.33734 19.2117 7.66736 19.2222 10.4615 19.2222C13.2557 19.2222 13.5857 19.2117 14.689 19.1613C15.7094 19.1147 16.2629 18.9445 16.6319 18.8009C17.1198 18.6107 17.4689 18.3853 17.835 18.0191C18.1822 17.6815 18.4494 17.2697 18.6168 16.816C18.7604 16.447 18.9306 15.8935 18.9772 14.873C19.0276 13.7698 19.0381 13.4389 19.0381 10.6456C19.0381 7.85239 19.0276 7.52142 18.9772 6.41821C18.9306 5.39773 18.7604 4.84422 18.6168 4.47521C18.4266 3.98733 18.2012 3.63829 17.835 3.27214C17.4973 2.92507 17.0863 2.65796 16.6319 2.49038C16.2629 2.34677 15.7094 2.17653 14.689 2.12993ZM9.12531 13.8706C9.87156 14.1813 10.7025 14.2232 11.4762 13.9892C12.25 13.7553 12.9185 13.26 13.3676 12.5879C13.8167 11.9158 14.0185 11.1087 13.9386 10.3043C13.8587 9.49993 13.502 8.74825 12.9295 8.17765C12.5645 7.8129 12.1232 7.53361 11.6374 7.35989C11.1515 7.18616 10.6331 7.12233 10.1196 7.17298C9.60613 7.22362 9.11024 7.38749 8.66767 7.65279C8.2251 7.91809 7.84686 8.27822 7.56018 8.70724C7.27349 9.13627 7.08549 9.62352 7.00972 10.1339C6.93395 10.6443 6.97228 11.1652 7.12197 11.659C7.27165 12.1528 7.52896 12.6073 7.87537 12.9897C8.22178 13.3721 8.64867 13.673 9.12531 13.8706ZM6.65924 6.84333C7.15857 6.344 7.75135 5.94792 8.40375 5.67768C9.05615 5.40745 9.75539 5.26836 10.4615 5.26836C11.1677 5.26836 11.8669 5.40745 12.5193 5.67768C13.1717 5.94792 13.7645 6.344 14.2638 6.84333C14.7632 7.34265 15.1592 7.93543 15.4295 8.58783C15.6997 9.24023 15.8388 9.93947 15.8388 10.6456C15.8388 11.3518 15.6997 12.051 15.4295 12.7034C15.1592 13.3558 14.7632 13.9486 14.2638 14.4479C13.2554 15.4563 11.8877 16.0229 10.4615 16.0229C9.0354 16.0229 7.66768 15.4563 6.65924 14.4479C5.65081 13.4395 5.08428 12.0718 5.08428 10.6456C5.08428 9.21948 5.65081 7.85176 6.65924 6.84333ZM17.0314 6.06917C17.1551 5.95245 17.2542 5.81209 17.3227 5.65639C17.3912 5.5007 17.4278 5.33284 17.4303 5.16276C17.4328 4.99267 17.4011 4.82382 17.3371 4.66619C17.2732 4.50857 17.1783 4.36538 17.058 4.2451C16.9377 4.12482 16.7945 4.02989 16.6369 3.96594C16.4793 3.902 16.3104 3.87032 16.1403 3.8728C15.9702 3.87528 15.8024 3.91186 15.6467 3.98038C15.491 4.0489 15.3506 4.14795 15.2339 4.27169C15.0069 4.51233 14.8826 4.83197 14.8874 5.16276C14.8923 5.49354 15.0258 5.80942 15.2597 6.04334C15.4937 6.27727 15.8095 6.41082 16.1403 6.41564C16.4711 6.42046 16.7907 6.29618 17.0314 6.06917Z" fill="#B68EFB"/>
</svg>
