<svg width="49" height="16" viewBox="0 0 49 16" fill="none" xmlns="http://www.w3.org/2000/svg">
<path d="M47.8573 7.10349C37.1139 7.54385 13.0696 9.90272 2.42756 10.3389C1.74451 10.3669 1.35996 10.4213 1.2199 10.4977M1.2199 10.4977C0.837044 10.7066 2.28102 11.0797 4.44907 11.5269M1.2199 10.4977C1.23149 10.5208 1.25269 10.5385 1.28421 10.5504C2.33628 10.9477 3.38944 11.2619 4.44907 11.5269M1.2199 10.4977C0.945005 9.95029 6.08683 6.37829 7.64688 5.46401C8.29573 5.08376 10.2081 3.7203 14.225 1.36621M4.44907 11.5269C8.05847 12.2715 13.6747 13.2214 16.2094 13.9605C19.3381 14.8727 14.7057 13.5746 12.5428 13.1063C9.74963 12.5388 7.07935 12.1846 4.44907 11.5269Z" stroke="#0F0E21" stroke-width="2" stroke-linecap="round" stroke-linejoin="round"/>
</svg>
