<svg width="22" height="21" viewBox="0 0 22 21" fill="none" xmlns="http://www.w3.org/2000/svg">
<path d="M18.8521 0H2.3454C1.74842 0 1.17589 0.237053 0.753761 0.65901C0.331632 1.08097 0.0944824 1.65326 0.0944824 2.25V18.75C0.0944824 19.3467 0.331632 19.919 0.753761 20.341C1.17589 20.7629 1.74842 21 2.3454 21H8.78162V13.8605H5.82729V10.5H8.78162V7.93875C8.78162 5.02547 10.5167 3.41625 13.1742 3.41625C14.4469 3.41625 15.7777 3.64313 15.7777 3.64313V6.5025H14.3114C12.8666 6.5025 12.4159 7.39875 12.4159 8.31797V10.5H15.6413L15.1254 13.8605H12.4159V21H18.8521C19.4491 21 20.0216 20.7629 20.4438 20.341C20.8659 19.919 21.103 19.3467 21.103 18.75V2.25C21.103 1.65326 20.8659 1.08097 20.4438 0.65901C20.0216 0.237053 19.4491 0 18.8521 0Z" fill="#B68EFB"/>
</svg>
