<svg width="54" height="55" viewBox="0 0 54 55" fill="none" xmlns="http://www.w3.org/2000/svg">
<path fill-rule="evenodd" clip-rule="evenodd" d="M48 27.2358C48 38.8338 38.598 48.2358 27 48.2358C15.402 48.2358 6 38.8338 6 27.2358C6 15.6379 15.402 6.23584 27 6.23584C38.598 6.23584 48 15.6379 48 27.2358ZM25.5239 34.1158V28.2658H20.0639V26.4058H25.5239V20.5558H27.4739V26.4058H32.9339V28.2658H27.4739V34.1158H25.5239Z" fill="white"/>
<path fill-rule="evenodd" clip-rule="evenodd" d="M54 27.2358C54 42.1475 41.9117 54.2358 27 54.2358C12.0883 54.2358 0 42.1475 0 27.2358C0 12.3242 12.0883 0.23584 27 0.23584C41.9117 0.23584 54 12.3242 54 27.2358ZM52 27.2358C52 41.043 40.8071 52.2358 27 52.2358C13.1929 52.2358 2 41.043 2 27.2358C2 13.4287 13.1929 2.23584 27 2.23584C40.8071 2.23584 52 13.4287 52 27.2358Z" fill="white"/>
</svg>
