<svg width="22" height="21" viewBox="0 0 22 21" fill="none" xmlns="http://www.w3.org/2000/svg">
<path fill-rule="evenodd" clip-rule="evenodd" d="M6.23038 0.0627685C7.34641 0.0114124 7.70225 0 10.5451 0C13.388 0 13.7439 0.0123635 14.859 0.0627685C15.974 0.113174 16.7352 0.291018 17.4012 0.548749C18.0986 0.812187 18.7313 1.22399 19.2546 1.75657C19.7874 2.27869 20.1984 2.91018 20.461 3.60824C20.7198 4.27397 20.8968 5.0348 20.9481 6.14751C20.9995 7.26498 21.0109 7.62067 21.0109 10.4614C21.0109 13.3031 20.9986 13.6588 20.9481 14.7744C20.8977 15.8871 20.7198 16.6479 20.461 17.3137C20.1984 18.0118 19.7867 18.6444 19.2546 19.1672C18.7313 19.6998 18.0986 20.1107 17.4012 20.3732C16.7352 20.6318 15.974 20.8087 14.8609 20.8601C13.7439 20.9114 13.388 20.9229 10.5451 20.9229C7.70225 20.9229 7.34641 20.9105 6.23038 20.8601C5.1172 20.8097 4.35605 20.6318 3.69005 20.3732C2.99162 20.1106 2.35882 19.6991 1.8357 19.1672C1.30325 18.6448 0.89122 18.0126 0.628324 17.3146C0.370485 16.6489 0.193518 15.8881 0.14214 14.7753C0.0907629 13.6579 0.0793457 13.3022 0.0793457 10.4614C0.0793457 7.61972 0.0917144 7.26403 0.14214 6.14942C0.192567 5.0348 0.370485 4.27397 0.628324 3.60824C0.891608 2.91026 1.30396 2.27804 1.83665 1.75562C2.35902 1.22351 2.99119 0.811658 3.68909 0.548749C4.3551 0.291018 5.1172 0.114125 6.23038 0.0627685ZM14.7743 1.94583C13.6706 1.89542 13.3395 1.88496 10.5451 1.88496C7.75077 1.88496 7.41967 1.89542 6.31601 1.94583C5.29512 1.99243 4.74138 2.16266 4.37223 2.30627C3.88414 2.49648 3.53496 2.72187 3.16866 3.08802C2.82143 3.42569 2.5542 3.83676 2.38658 4.29109C2.24291 4.66009 2.0726 5.21359 2.02598 6.23406C1.97556 7.33726 1.96509 7.66823 1.96509 10.4614C1.96509 13.2546 1.97556 13.5856 2.02598 14.6888C2.0726 15.7093 2.24291 16.2628 2.38658 16.6318C2.55403 17.0854 2.82138 17.4972 3.16866 17.8348C3.50642 18.182 3.91839 18.4492 4.37223 18.6166C4.74138 18.7602 5.29512 18.9304 6.31601 18.977C7.41967 19.0274 7.74982 19.0379 10.5451 19.0379C13.3405 19.0379 13.6706 19.0274 14.7743 18.977C15.7952 18.9304 16.3489 18.7602 16.7181 18.6166C17.2061 18.4264 17.5553 18.201 17.9216 17.8348C18.2689 17.4972 18.5363 17.0854 18.7037 16.6318C18.8474 16.2628 19.0177 15.7093 19.0643 14.6888C19.1147 13.5856 19.1252 13.2546 19.1252 10.4614C19.1252 7.66823 19.1147 7.33726 19.0643 6.23406C19.0177 5.21359 18.8474 4.66009 18.7037 4.29109C18.5134 3.8032 18.2879 3.45417 17.9216 3.08802C17.5838 2.74096 17.1726 2.47385 16.7181 2.30627C16.3489 2.16266 15.7952 1.99243 14.7743 1.94583ZM9.20838 13.6864C9.95493 13.997 10.7862 14.039 11.5603 13.805C12.3343 13.5711 13.0031 13.0758 13.4524 12.4037C13.9016 11.7316 14.1036 10.9245 14.0236 10.1201C13.9437 9.31575 13.5869 8.56408 13.0141 7.99348C12.649 7.62873 12.2075 7.34945 11.7214 7.17573C11.2354 7.00201 10.7168 6.93817 10.2031 6.98882C9.68939 7.03947 9.1933 7.20334 8.75055 7.46863C8.3078 7.73393 7.9294 8.09405 7.6426 8.52307C7.3558 8.95209 7.16772 9.43933 7.09192 9.94973C7.01612 10.4601 7.05447 10.981 7.20421 11.4748C7.35396 11.9686 7.61137 12.423 7.95792 12.8055C8.30447 13.1879 8.73154 13.4888 9.20838 13.6864ZM6.7413 6.65917C7.24083 6.15985 7.83385 5.76377 8.48652 5.49354C9.13918 5.22331 9.8387 5.08423 10.5451 5.08423C11.2516 5.08423 11.9511 5.22331 12.6038 5.49354C13.2564 5.76377 13.8495 6.15985 14.349 6.65917C14.8485 7.15849 15.2448 7.75127 15.5151 8.40366C15.7854 9.05605 15.9246 9.75528 15.9246 10.4614C15.9246 11.1676 15.7854 11.8668 15.5151 12.5192C15.2448 13.1716 14.8485 13.7644 14.349 14.2637C13.3401 15.2721 11.9719 15.8386 10.5451 15.8386C9.11843 15.8386 7.75014 15.2721 6.7413 14.2637C5.73246 13.2553 5.1657 11.8875 5.1657 10.4614C5.1657 9.0353 5.73246 7.66759 6.7413 6.65917ZM17.1177 5.88503C17.2415 5.76831 17.3405 5.62794 17.4091 5.47225C17.4776 5.31656 17.5142 5.1487 17.5167 4.97862C17.5192 4.80854 17.4875 4.63969 17.4235 4.48206C17.3596 4.32444 17.2646 4.18125 17.1443 4.06097C17.0239 3.94069 16.8807 3.84577 16.723 3.78182C16.5653 3.71787 16.3964 3.6862 16.2262 3.68868C16.0561 3.69116 15.8882 3.72774 15.7324 3.79626C15.5766 3.86477 15.4362 3.96383 15.3194 4.08756C15.0924 4.3282 14.968 4.64784 14.9728 4.97862C14.9777 5.3094 15.1113 5.62528 15.3453 5.8592C15.5793 6.09312 15.8953 6.22667 16.2262 6.23149C16.5572 6.23631 16.8769 6.11203 17.1177 5.88503Z" fill="#B68EFB"/>
</svg>
