<svg width="50" height="16" viewBox="0 0 50 16" fill="none" xmlns="http://www.w3.org/2000/svg">
<path d="M1.54443 3.88289C12.2381 5.00558 36.3703 6.15946 46.9631 7.27156C47.6429 7.34294 48.0313 7.34489 48.181 7.28962M48.181 7.28962C48.5901 7.13854 47.2155 6.55989 45.1352 5.8029M48.181 7.28962C48.1729 7.2651 48.1544 7.24449 48.125 7.22815C47.1417 6.68246 46.1452 6.21877 45.1352 5.8029M48.181 7.28962C48.3736 7.87114 42.768 10.6595 41.0918 11.3378C40.3947 11.6199 38.3047 12.6916 33.9888 14.4381M45.1352 5.8029C41.672 4.54264 36.253 2.78807 33.8523 1.68912C30.8891 0.332732 35.2841 2.2891 37.3562 3.06619C40.0375 4.03279 42.6282 4.77059 45.1352 5.8029Z" stroke="#0F0E21" stroke-width="2" stroke-linecap="round" stroke-linejoin="round"/>
</svg>
