<svg width="55" height="55" viewBox="0 0 55 55" fill="none" xmlns="http://www.w3.org/2000/svg">
<path fill-rule="evenodd" clip-rule="evenodd" d="M48.8027 27.042C48.8027 38.64 39.4007 48.042 27.8027 48.042C16.2048 48.042 6.80273 38.64 6.80273 27.042C6.80273 15.444 16.2048 6.04199 27.8027 6.04199C39.4007 6.04199 48.8027 15.444 48.8027 27.042ZM26.3267 33.922V28.072H20.8667V26.212H26.3267V20.362H28.2767V26.212H33.7367V28.072H28.2767V33.922H26.3267Z" fill="white"/>
<path fill-rule="evenodd" clip-rule="evenodd" d="M54.8027 27.042C54.8027 41.9537 42.7144 54.042 27.8027 54.042C12.891 54.042 0.802734 41.9537 0.802734 27.042C0.802734 12.1303 12.891 0.0419922 27.8027 0.0419922C42.7144 0.0419922 54.8027 12.1303 54.8027 27.042ZM52.8027 27.042C52.8027 40.8491 41.6099 52.042 27.8027 52.042C13.9956 52.042 2.80273 40.8491 2.80273 27.042C2.80273 13.2349 13.9956 2.04199 27.8027 2.04199C41.6099 2.04199 52.8027 13.2349 52.8027 27.042Z" fill="white"/>
</svg>
