<svg width="21" height="21" viewBox="0 0 21 21" fill="none" xmlns="http://www.w3.org/2000/svg">
<path fill-rule="evenodd" clip-rule="evenodd" d="M6.14853 0.0627692C7.26411 0.0114126 7.6198 0 10.4615 0C13.3033 0 13.659 0.0123636 14.7736 0.0627692C15.8882 0.113175 16.6491 0.291021 17.3148 0.548755C18.0119 0.812196 18.6444 1.224 19.1674 1.75659C19.7 2.27871 20.1109 2.91021 20.3734 3.60828C20.6321 4.27401 20.809 5.03485 20.8603 6.14758C20.9117 7.26506 20.9231 7.62075 20.9231 10.4615C20.9231 13.3033 20.9107 13.659 20.8603 14.7745C20.8099 15.8873 20.6321 16.6481 20.3734 17.3138C20.1109 18.012 19.6993 18.6446 19.1674 19.1674C18.6444 19.7 18.0119 20.1109 17.3148 20.3734C16.6491 20.6321 15.8882 20.809 14.7755 20.8603C13.659 20.9117 13.3033 20.9231 10.4615 20.9231C7.6198 20.9231 7.26411 20.9107 6.14853 20.8603C5.0358 20.8099 4.27496 20.6321 3.60923 20.3734C2.91109 20.1108 2.27854 19.6993 1.75564 19.1674C1.22341 18.645 0.811544 18.0128 0.548755 17.3148C0.291021 16.6491 0.114126 15.8882 0.0627692 14.7755C0.0114126 13.658 0 13.3023 0 10.4615C0 7.6198 0.0123636 7.26411 0.0627692 6.14948C0.113175 5.03485 0.291021 4.27401 0.548755 3.60828C0.811932 2.91029 1.22411 2.27806 1.75659 1.75564C2.27875 1.22353 2.91066 0.811666 3.60828 0.548755C4.27401 0.291021 5.0358 0.114126 6.14853 0.0627692ZM14.689 1.94585C13.5857 1.89544 13.2548 1.88498 10.4615 1.88498C7.66831 1.88498 7.33734 1.89544 6.23413 1.94585C5.21365 1.99245 4.66014 2.16269 4.29113 2.30629C3.80324 2.4965 3.45421 2.7219 3.08806 3.08806C2.74097 3.42573 2.47385 3.8368 2.30629 4.29113C2.16269 4.66014 1.99245 5.21365 1.94585 6.23413C1.89544 7.33734 1.88498 7.66831 1.88498 10.4615C1.88498 13.2548 1.89544 13.5857 1.94585 14.689C1.99245 15.7094 2.16269 16.2629 2.30629 16.6319C2.47368 17.0856 2.74092 17.4974 3.08806 17.835C3.42568 18.1822 3.83748 18.4494 4.29113 18.6168C4.66014 18.7604 5.21365 18.9306 6.23413 18.9772C7.33734 19.0276 7.66736 19.0381 10.4615 19.0381C13.2557 19.0381 13.5857 19.0276 14.689 18.9772C15.7094 18.9306 16.2629 18.7604 16.6319 18.6168C17.1198 18.4266 17.4689 18.2012 17.835 17.835C18.1822 17.4974 18.4494 17.0856 18.6168 16.6319C18.7604 16.2629 18.9306 15.7094 18.9772 14.689C19.0276 13.5857 19.0381 13.2548 19.0381 10.4615C19.0381 7.66831 19.0276 7.33734 18.9772 6.23413C18.9306 5.21365 18.7604 4.66014 18.6168 4.29113C18.4266 3.80324 18.2012 3.45421 17.835 3.08806C17.4973 2.74099 17.0863 2.47388 16.6319 2.30629C16.2629 2.16269 15.7094 1.99245 14.689 1.94585ZM9.12531 13.6865C9.87156 13.9972 10.7025 14.0391 11.4762 13.8052C12.25 13.5712 12.9185 13.0759 13.3676 12.4038C13.8167 11.7317 14.0185 10.9246 13.9386 10.1202C13.8587 9.31585 13.502 8.56417 12.9295 7.99357C12.5645 7.62882 12.1232 7.34953 11.6374 7.1758C11.1515 7.00208 10.6331 6.93824 10.1196 6.98889C9.60613 7.03954 9.11024 7.20341 8.66767 7.46871C8.2251 7.73401 7.84686 8.09413 7.56018 8.52316C7.27349 8.95218 7.08549 9.43944 7.00972 9.94984C6.93395 10.4602 6.97228 10.9811 7.12197 11.4749C7.27165 11.9687 7.52896 12.4232 7.87537 12.8056C8.22178 13.188 8.64867 13.4889 9.12531 13.6865ZM6.65924 6.65924C7.15857 6.15992 7.75135 5.76383 8.40375 5.4936C9.05615 5.22337 9.75539 5.08428 10.4615 5.08428C11.1677 5.08428 11.8669 5.22337 12.5193 5.4936C13.1717 5.76383 13.7645 6.15992 14.2638 6.65924C14.7632 7.15857 15.1592 7.75135 15.4295 8.40375C15.6997 9.05615 15.8388 9.75539 15.8388 10.4615C15.8388 11.1677 15.6997 11.8669 15.4295 12.5193C15.1592 13.1717 14.7632 13.7645 14.2638 14.2638C13.2554 15.2723 11.8877 15.8388 10.4615 15.8388C9.0354 15.8388 7.66768 15.2723 6.65924 14.2638C5.65081 13.2554 5.08428 11.8877 5.08428 10.4615C5.08428 9.0354 5.65081 7.66768 6.65924 6.65924ZM17.0314 5.88509C17.1551 5.76837 17.2542 5.628 17.3227 5.47231C17.3912 5.31662 17.4278 5.14876 17.4303 4.97867C17.4328 4.80859 17.4011 4.63974 17.3371 4.48211C17.2732 4.32449 17.1783 4.1813 17.058 4.06102C16.9377 3.94074 16.7945 3.84581 16.6369 3.78186C16.4793 3.71791 16.3104 3.68624 16.1403 3.68872C15.9702 3.6912 15.8024 3.72778 15.6467 3.7963C15.491 3.86481 15.3506 3.96387 15.2339 4.08761C15.0069 4.32825 14.8826 4.64789 14.8874 4.97867C14.8923 5.30946 15.0258 5.62534 15.2597 5.85926C15.4937 6.09319 15.8095 6.22673 16.1403 6.23156C16.4711 6.23638 16.7907 6.1121 17.0314 5.88509Z" fill="#B68EFB"/>
</svg>
