<svg width="21" height="22" viewBox="0 0 21 22" fill="none" xmlns="http://www.w3.org/2000/svg">
<path d="M18.75 0.183594H2.25C1.65326 0.183594 1.08097 0.420647 0.65901 0.842604C0.237053 1.26456 0 1.83686 0 2.43359V18.9336C0 19.5303 0.237053 20.1026 0.65901 20.5246C1.08097 20.9465 1.65326 21.1836 2.25 21.1836H8.68359V14.0441H5.73047V10.6836H8.68359V8.12234C8.68359 5.20906 10.418 3.59984 13.0744 3.59984C14.3466 3.59984 15.6769 3.82672 15.6769 3.82672V6.68609H14.2111C12.7669 6.68609 12.3164 7.58234 12.3164 8.50156V10.6836H15.5405L15.0248 14.0441H12.3164V21.1836H18.75C19.3467 21.1836 19.919 20.9465 20.341 20.5246C20.7629 20.1026 21 19.5303 21 18.9336V2.43359C21 1.83686 20.7629 1.26456 20.341 0.842604C19.919 0.420647 19.3467 0.183594 18.75 0.183594Z" fill="#B68EFB"/>
</svg>
