<svg width="21" height="22" viewBox="0 0 21 22" fill="none" xmlns="http://www.w3.org/2000/svg">
<path fill-rule="evenodd" clip-rule="evenodd" d="M6.14853 0.703394C7.26411 0.652038 7.6198 0.640625 10.4615 0.640625C13.3033 0.640625 13.659 0.652989 14.7736 0.703394C15.8882 0.7538 16.6491 0.931646 17.3148 1.18938C18.0119 1.45282 18.6444 1.86462 19.1674 2.39721C19.7 2.91934 20.1109 3.55083 20.3734 4.2489C20.6321 4.91464 20.809 5.67548 20.8603 6.78821C20.9117 7.90569 20.9231 8.26138 20.9231 11.1022C20.9231 13.9439 20.9107 14.2996 20.8603 15.4152C20.8099 16.5279 20.6321 17.2887 20.3734 17.9545C20.1109 18.6526 19.6993 19.2852 19.1674 19.8081C18.6444 20.3407 18.0119 20.7515 17.3148 21.014C16.6491 21.2727 15.8882 21.4496 14.7755 21.5009C13.659 21.5523 13.3033 21.5637 10.4615 21.5637C7.6198 21.5637 7.26411 21.5513 6.14853 21.5009C5.0358 21.4505 4.27496 21.2727 3.60923 21.014C2.91109 20.7515 2.27854 20.3399 1.75564 19.8081C1.22341 19.2856 0.811544 18.6534 0.548755 17.9554C0.291021 17.2897 0.114126 16.5288 0.0627692 15.4161C0.0114126 14.2986 0 13.9429 0 11.1022C0 8.26043 0.0123636 7.90474 0.0627692 6.79011C0.113175 5.67548 0.291021 4.91464 0.548755 4.2489C0.811932 3.55091 1.22411 2.91868 1.75659 2.39626C2.27875 1.86415 2.91066 1.45229 3.60828 1.18938C4.27401 0.931646 5.0358 0.754751 6.14853 0.703394ZM14.689 2.58647C13.5857 2.53607 13.2548 2.5256 10.4615 2.5256C7.66831 2.5256 7.33734 2.53607 6.23413 2.58647C5.21365 2.63307 4.66014 2.80331 4.29113 2.94692C3.80324 3.13713 3.45421 3.36253 3.08806 3.72868C2.74097 4.06635 2.47385 4.47742 2.30629 4.93176C2.16269 5.30076 1.99245 5.85428 1.94585 6.87475C1.89544 7.97797 1.88498 8.30893 1.88498 11.1022C1.88498 13.8954 1.89544 14.2264 1.94585 15.3296C1.99245 16.3501 2.16269 16.9036 2.30629 17.2726C2.47368 17.7262 2.74092 18.138 3.08806 18.4756C3.42568 18.8228 3.83748 19.09 4.29113 19.2574C4.66014 19.401 5.21365 19.5713 6.23413 19.6179C7.33734 19.6683 7.66736 19.6787 10.4615 19.6787C13.2557 19.6787 13.5857 19.6683 14.689 19.6179C15.7094 19.5713 16.2629 19.401 16.6319 19.2574C17.1198 19.0672 17.4689 18.8418 17.835 18.4756C18.1822 18.138 18.4494 17.7262 18.6168 17.2726C18.7604 16.9036 18.9306 16.3501 18.9772 15.3296C19.0276 14.2264 19.0381 13.8954 19.0381 11.1022C19.0381 8.30893 19.0276 7.97797 18.9772 6.87475C18.9306 5.85428 18.7604 5.30076 18.6168 4.93176C18.4266 4.44387 18.2012 4.09483 17.835 3.72868C17.4973 3.38162 17.0863 3.1145 16.6319 2.94692C16.2629 2.80331 15.7094 2.63307 14.689 2.58647ZM9.12531 14.3272C9.87156 14.6378 10.7025 14.6797 11.4762 14.4458C12.25 14.2118 12.9185 13.7165 13.3676 13.0444C13.8167 12.3724 14.0185 11.5652 13.9386 10.7608C13.8587 9.95647 13.502 9.20479 12.9295 8.63419C12.5645 8.26944 12.1232 7.99015 11.6374 7.81643C11.1515 7.64271 10.6331 7.57887 10.1196 7.62952C9.60613 7.68017 9.11024 7.84404 8.66767 8.10934C8.2251 8.37463 7.84686 8.73476 7.56018 9.16378C7.27349 9.59281 7.08549 10.0801 7.00972 10.5905C6.93395 11.1009 6.97228 11.6217 7.12197 12.1155C7.27165 12.6093 7.52896 13.0638 7.87537 13.4462C8.22178 13.8287 8.64867 14.1295 9.12531 14.3272ZM6.65924 7.29987C7.15857 6.80055 7.75135 6.40446 8.40375 6.13423C9.05615 5.864 9.75539 5.72491 10.4615 5.72491C11.1677 5.72491 11.8669 5.86399 12.5193 6.13423C13.1717 6.40446 13.7645 6.80055 14.2638 7.29987C14.7632 7.79919 15.1592 8.39198 15.4295 9.04438C15.6997 9.69678 15.8388 10.396 15.8388 11.1022C15.8388 11.8083 15.6997 12.5076 15.4295 13.1599C15.1592 13.8123 14.7632 14.4051 14.2638 14.9045C13.2554 15.9129 11.8877 16.4794 10.4615 16.4794C9.0354 16.4794 7.66768 15.9129 6.65924 14.9045C5.65081 13.896 5.08428 12.5283 5.08428 11.1022C5.08428 9.67603 5.65081 8.3083 6.65924 7.29987ZM17.0314 6.52572C17.1551 6.40899 17.2542 6.26863 17.3227 6.11294C17.3912 5.95724 17.4278 5.78938 17.4303 5.6193C17.4328 5.44921 17.4011 5.28036 17.3371 5.12274C17.2732 4.96511 17.1783 4.82192 17.058 4.70164C16.9377 4.58136 16.7945 4.48644 16.6369 4.42249C16.4793 4.35854 16.3104 4.32687 16.1403 4.32935C15.9702 4.33183 15.8024 4.36841 15.6467 4.43692C15.491 4.50544 15.3506 4.6045 15.2339 4.72823C15.0069 4.96888 14.8826 5.28852 14.8874 5.6193C14.8923 5.95008 15.0258 6.26596 15.2597 6.49989C15.4937 6.73381 15.8095 6.86736 16.1403 6.87218C16.4711 6.877 16.7907 6.75272 17.0314 6.52572Z" fill="#B68EFB"/>
</svg>
